<?xml version="1.0" encoding="UTF-8" standalone="no"?>
<!-- Created with Inkscape (http://www.inkscape.org/) -->

<svg
   width="360"
   height="80"
   viewBox="0 0 95.249998 21.166666"
   version="1.1"
   id="svg1"
   inkscape:version="1.3 (0e150ed, 2023-07-21)"
   sodipodi:docname="path1.svg"
   xml:space="preserve"
   xmlns:inkscape="http://www.inkscape.org/namespaces/inkscape"
   xmlns:sodipodi="http://sodipodi.sourceforge.net/DTD/sodipodi-0.dtd"
   xmlns="http://www.w3.org/2000/svg"
   xmlns:svg="http://www.w3.org/2000/svg"><sodipodi:namedview
     id="namedview1"
     pagecolor="#ffffff"
     bordercolor="#000000"
     borderopacity="0.25"
     inkscape:showpageshadow="2"
     inkscape:pageopacity="0.0"
     inkscape:pagecheckerboard="0"
     inkscape:deskcolor="#d1d1d1"
     inkscape:document-units="mm"
     inkscape:zoom="1.6819304"
     inkscape:cx="199.47318"
     inkscape:cy="30.322301"
     inkscape:window-width="1928"
     inkscape:window-height="953"
     inkscape:window-x="128"
     inkscape:window-y="44"
     inkscape:window-maximized="0"
     inkscape:current-layer="layer1"
     showgrid="false" /><defs
     id="defs1"><inkscape:path-effect
       effect="bspline"
       id="path-effect92"
       is_visible="true"
       lpeversion="1.3"
       weight="33.333333"
       steps="2"
       helper_size="0"
       apply_no_weight="true"
       apply_with_weight="true"
       only_selected="false"
       uniform="false" /><inkscape:path-effect
       effect="bspline"
       id="path-effect90"
       is_visible="true"
       lpeversion="1.3"
       weight="33.333333"
       steps="2"
       helper_size="0"
       apply_no_weight="true"
       apply_with_weight="true"
       only_selected="false"
       uniform="false" /><inkscape:path-effect
       effect="bspline"
       id="path-effect88"
       is_visible="true"
       lpeversion="1.3"
       weight="33.333333"
       steps="2"
       helper_size="0"
       apply_no_weight="true"
       apply_with_weight="true"
       only_selected="false"
       uniform="false" /><inkscape:path-effect
       effect="bspline"
       id="path-effect86"
       is_visible="true"
       lpeversion="1.3"
       weight="33.333333"
       steps="2"
       helper_size="0"
       apply_no_weight="true"
       apply_with_weight="true"
       only_selected="false"
       uniform="false" /><inkscape:path-effect
       effect="bspline"
       id="path-effect84"
       is_visible="true"
       lpeversion="1.3"
       weight="33.333333"
       steps="2"
       helper_size="0"
       apply_no_weight="true"
       apply_with_weight="true"
       only_selected="false"
       uniform="false" /><inkscape:path-effect
       effect="bspline"
       id="path-effect82"
       is_visible="true"
       lpeversion="1.3"
       weight="33.333333"
       steps="2"
       helper_size="0"
       apply_no_weight="true"
       apply_with_weight="true"
       only_selected="false"
       uniform="false" /><inkscape:path-effect
       effect="bspline"
       id="path-effect65"
       is_visible="true"
       lpeversion="1.3"
       weight="33.333333"
       steps="2"
       helper_size="0"
       apply_no_weight="true"
       apply_with_weight="true"
       only_selected="false"
       uniform="false" /><inkscape:path-effect
       effect="bspline"
       id="path-effect63"
       is_visible="true"
       lpeversion="1.3"
       weight="33.333333"
       steps="2"
       helper_size="0"
       apply_no_weight="true"
       apply_with_weight="true"
       only_selected="false"
       uniform="false" /><inkscape:path-effect
       effect="bspline"
       id="path-effect61"
       is_visible="true"
       lpeversion="1.3"
       weight="33.333333"
       steps="2"
       helper_size="0"
       apply_no_weight="true"
       apply_with_weight="true"
       only_selected="false"
       uniform="false" /><inkscape:path-effect
       effect="bspline"
       id="path-effect59"
       is_visible="true"
       lpeversion="1.3"
       weight="33.333333"
       steps="2"
       helper_size="0"
       apply_no_weight="true"
       apply_with_weight="true"
       only_selected="false"
       uniform="false" /><inkscape:path-effect
       effect="bspline"
       id="path-effect57"
       is_visible="true"
       lpeversion="1.3"
       weight="33.333333"
       steps="2"
       helper_size="0"
       apply_no_weight="true"
       apply_with_weight="true"
       only_selected="false"
       uniform="false" /><inkscape:path-effect
       effect="bspline"
       id="path-effect55"
       is_visible="true"
       lpeversion="1.3"
       weight="33.333333"
       steps="2"
       helper_size="0"
       apply_no_weight="true"
       apply_with_weight="true"
       only_selected="false"
       uniform="false" /><inkscape:path-effect
       effect="bspline"
       id="path-effect38"
       is_visible="true"
       lpeversion="1.3"
       weight="33.333333"
       steps="2"
       helper_size="0"
       apply_no_weight="true"
       apply_with_weight="true"
       only_selected="false"
       uniform="false" /><inkscape:path-effect
       effect="bspline"
       id="path-effect36"
       is_visible="true"
       lpeversion="1.3"
       weight="33.333333"
       steps="2"
       helper_size="0"
       apply_no_weight="true"
       apply_with_weight="true"
       only_selected="false"
       uniform="false" /><inkscape:path-effect
       effect="bspline"
       id="path-effect34"
       is_visible="true"
       lpeversion="1.3"
       weight="33.333333"
       steps="2"
       helper_size="0"
       apply_no_weight="true"
       apply_with_weight="true"
       only_selected="false"
       uniform="false" /><inkscape:path-effect
       effect="bspline"
       id="path-effect32"
       is_visible="true"
       lpeversion="1.3"
       weight="33.333333"
       steps="2"
       helper_size="0"
       apply_no_weight="true"
       apply_with_weight="true"
       only_selected="false"
       uniform="false" /><inkscape:path-effect
       effect="bspline"
       id="path-effect30"
       is_visible="true"
       lpeversion="1.3"
       weight="33.333333"
       steps="2"
       helper_size="0"
       apply_no_weight="true"
       apply_with_weight="true"
       only_selected="false"
       uniform="false" /><inkscape:path-effect
       effect="bspline"
       id="path-effect28"
       is_visible="true"
       lpeversion="1.3"
       weight="33.333333"
       steps="2"
       helper_size="0"
       apply_no_weight="true"
       apply_with_weight="true"
       only_selected="false"
       uniform="false" /><inkscape:path-effect
       effect="bspline"
       id="path-effect3"
       is_visible="true"
       lpeversion="1.3"
       weight="33.333333"
       steps="2"
       helper_size="0"
       apply_no_weight="true"
       apply_with_weight="true"
       only_selected="false"
       uniform="false" /><inkscape:path-effect
       effect="bspline"
       id="path-effect15"
       is_visible="true"
       lpeversion="1.3"
       weight="33.333333"
       steps="2"
       helper_size="0"
       apply_no_weight="true"
       apply_with_weight="true"
       only_selected="false"
       uniform="false" /><inkscape:path-effect
       effect="bspline"
       id="path-effect14"
       is_visible="true"
       lpeversion="1.3"
       weight="33.333333"
       steps="2"
       helper_size="0"
       apply_no_weight="true"
       apply_with_weight="true"
       only_selected="false"
       uniform="false" /><inkscape:path-effect
       effect="bspline"
       id="path-effect13"
       is_visible="true"
       lpeversion="1.3"
       weight="33.333333"
       steps="2"
       helper_size="0"
       apply_no_weight="true"
       apply_with_weight="true"
       only_selected="false"
       uniform="false" /><inkscape:path-effect
       effect="bspline"
       id="path-effect12"
       is_visible="true"
       lpeversion="1.3"
       weight="33.333333"
       steps="2"
       helper_size="0"
       apply_no_weight="true"
       apply_with_weight="true"
       only_selected="false"
       uniform="false" /><inkscape:path-effect
       effect="bspline"
       id="path-effect11"
       is_visible="true"
       lpeversion="1.3"
       weight="33.333333"
       steps="2"
       helper_size="0"
       apply_no_weight="true"
       apply_with_weight="true"
       only_selected="false"
       uniform="false" /><inkscape:path-effect
       effect="bspline"
       id="path-effect10"
       is_visible="true"
       lpeversion="1.3"
       weight="33.333333"
       steps="2"
       helper_size="0"
       apply_no_weight="true"
       apply_with_weight="true"
       only_selected="false"
       uniform="false" /><inkscape:path-effect
       effect="bspline"
       id="path-effect9"
       is_visible="true"
       lpeversion="1.3"
       weight="33.333333"
       steps="2"
       helper_size="0"
       apply_no_weight="true"
       apply_with_weight="true"
       only_selected="false"
       uniform="false" /><inkscape:path-effect
       effect="bspline"
       id="path-effect8"
       is_visible="true"
       lpeversion="1.3"
       weight="33.333333"
       steps="2"
       helper_size="0"
       apply_no_weight="true"
       apply_with_weight="true"
       only_selected="false"
       uniform="false" /><inkscape:path-effect
       effect="bspline"
       id="path-effect7"
       is_visible="true"
       lpeversion="1.3"
       weight="33.333333"
       steps="2"
       helper_size="0"
       apply_no_weight="true"
       apply_with_weight="true"
       only_selected="false"
       uniform="false" /><inkscape:path-effect
       effect="bspline"
       id="path-effect6"
       is_visible="true"
       lpeversion="1.3"
       weight="33.333333"
       steps="2"
       helper_size="0"
       apply_no_weight="true"
       apply_with_weight="true"
       only_selected="false"
       uniform="false" /></defs><g
     inkscape:label="Layer 1"
     inkscape:groupmode="layer"
     id="layer1"><text
       xml:space="preserve"
       style="font-size:13.736px;font-family:'Times New Roman';-inkscape-font-specification:'Times New Roman, ';text-align:center;text-anchor:middle;fill:#ffffff;fill-opacity:0.498216;stroke:#000000;stroke-width:0.52916667;stroke-dasharray:none"
       x="48.008495"
       y="13.867278"
       id="text1"
       transform="scale(0.99976376,1.0002363)"><tspan
         sodipodi:role="line"
         id="tspan1"
         style="fill:#ffffff;stroke:#000000;stroke-width:0.52916667;stroke-dasharray:none"
         x="48.008495"
         y="13.867278">Missing Picture .</tspan></text><g
       inkscape:label="Layer 1"
       id="layer1-5"
       style="display:inline;opacity:1;stroke-width:36.7079"
       transform="matrix(0,-0.02724208,0.02724208,0,13.972244,6.298654)"
       inkscape:transform-center-x="-0.047139124"
       inkscape:transform-center-y="-1.2084921"><circle
         style="opacity:1;fill:#2b1100;stroke-width:3.39931"
         id="path1"
         cx="47.625"
         cy="47.625"
         r="47.625"
         sodipodi:insensitive="true" /><circle
         style="opacity:1;fill:#784421;stroke-width:3.39931"
         id="circle1"
         cx="47.625"
         cy="47.625"
         r="46.302082"
         sodipodi:insensitive="true" /><circle
         style="opacity:1;fill:#c87137;stroke-width:3.39931"
         id="circle2"
         cx="47.625"
         cy="47.625"
         r="44.979168"
         sodipodi:insensitive="true" /><circle
         style="opacity:1;fill:#deaa87;stroke-width:3.39931"
         id="circle3"
         cx="47.625"
         cy="47.625"
         r="43.65625"
         sodipodi:insensitive="true" /><circle
         style="opacity:1;fill:#502d16;stroke-width:3.39931"
         id="circle4"
         cx="47.625"
         cy="47.625"
         r="42.333332"
         sodipodi:insensitive="true" /><circle
         style="opacity:1;fill:#d4aa00;stroke-width:3.39931"
         id="InnerCircle"
         cx="47.625"
         cy="47.625"
         r="39.6875" /><circle
         style="opacity:0.5;fill:#ffe680;stroke-width:3.39931"
         id="path5"
         cx="47.149963"
         cy="35.079979"
         r="6.2923727" /><path
         id="path6"
         style="opacity:1;fill:#165016;stroke-width:3.39931"
         d="m 85.356547,39.1604 c -1.222406,-0.02295 -2.742867,0.415849 -4.60437,1.031979 -3.723006,1.232261 -8.80929,3.172411 -14.367599,5.453414 -5.558307,2.281002 -11.588151,4.902821 -15.704467,5.951574 C 46.563795,52.64612 44.361442,52.121661 40.953056,50.8894 37.544669,49.65714 32.930002,47.717444 27.319263,45.226697 21.708523,42.735949 15.10157,39.694402 10.77557,40.323637 9.9397845,40.445206 9.1915199,40.707501 8.5307454,41.107052 A 39.6875,39.6875 0 0 0 7.9375,47.625 39.6875,39.6875 0 0 0 47.625,87.3125 39.6875,39.6875 0 0 0 87.3125,47.625 39.6875,39.6875 0 0 0 86.427283,39.336617 C 86.098335,39.227366 85.744085,39.167677 85.356547,39.1604 Z" /><path
         id="path8"
         style="opacity:1;fill:#112b00;stroke-width:3.39931"
         d="m 8.3865682,48.243567 c -0.1542249,0.0016 -0.2848974,0.01672 -0.4061768,0.03979 a 39.6875,39.6875 0 0 0 1.0159587,8.138004 c 0.9473656,0.789147 2.2839749,1.281263 4.1294639,1.534274 2.29889,0.31517 5.376362,0.267396 8.490954,0.595829 3.114593,0.328433 6.26617,1.032875 8.768974,1.144116 2.502806,0.111242 4.356611,-0.370384 6.5257,-0.629936 2.169089,-0.259552 4.6533,-0.296815 5.654435,-0.500744 1.001135,-0.20393 0.519035,-0.574507 -0.166915,-0.834058 -0.685949,-0.25955 -1.575723,-0.408111 -2.947623,-0.667659 -1.3719,-0.259549 -3.226193,-0.630317 -5.0245,-1.03818 -1.798308,-0.407863 -3.540644,-0.852523 -5.413106,-1.557011 -1.872462,-0.704488 -3.874857,-1.668421 -5.858557,-2.651001 -1.9837,-0.98258 -3.948818,-1.983779 -6.247681,-2.5585 -2.298864,-0.57472 -4.931146,-0.722953 -6.618201,-0.871265 -0.8435267,-0.07416 -1.4508389,-0.148295 -1.9027258,-0.143659 z" /><path
         id="path9"
         style="opacity:1;fill:#112b00;stroke-width:3.39931"
         d="m 86.408679,45.124377 c -1.03685,0.0525 -2.38949,0.356736 -3.872632,0.70435 -2.373027,0.556179 -5.079551,1.223424 -7.841898,2.039152 -2.762348,0.815728 -5.58038,1.779978 -7.61969,2.744019 -2.039309,0.964041 -3.300034,1.92784 -4.634859,2.762105 -1.334826,0.834264 -2.743936,1.538724 -3.911906,2.076359 -1.16797,0.537637 -2.094503,0.908391 -2.706295,1.631425 -0.611792,0.723035 -0.908626,1.798072 -0.05581,2.16886 0.852814,0.370789 2.855202,0.03735 4.672067,-0.222209 1.816864,-0.259551 3.447937,-0.444716 4.968172,-1.278991 1.520233,-0.834275 2.929371,-2.317535 4.227132,-3.17035 1.297761,-0.852814 2.484181,-1.07531 3.707784,-1.501717 1.223603,-0.426406 2.484104,-1.056778 4.134115,-1.205094 1.65001,-0.148315 3.689395,0.185463 5.246708,-0.129708 1.557311,-0.31517 2.632382,-1.278985 3.522265,-1.872237 0.354949,-0.236631 0.670594,-0.414683 0.960665,-0.596863 A 39.6875,39.6875 0 0 0 87.3125,47.625 39.6875,39.6875 0 0 0 87.179175,45.143498 c -0.23165,-0.02719 -0.488301,-0.03341 -0.770496,-0.01912 z" /><path
         style="opacity:1;fill:#112b00;stroke-width:3.39931"
         d="m 22.626324,62.582889 c -0.340837,-2.438297 -0.550579,-8.048873 -0.865204,-11.483532 -0.314625,-3.434658 -0.7341,-4.693083 -1.442005,-6.42352 -0.707906,-1.730436 -1.704159,-3.932679 -1.782815,-5.899085 -0.07866,-1.966406 0.76031,-3.696774 1.494426,-5.243663 0.734117,-1.546888 1.363342,-2.910209 2.254773,-2.857757 0.891431,0.05245 2.045009,1.520641 3.119966,3.198626 1.074957,1.677985 2.07121,3.565621 1.861459,5.820434 -0.20975,2.254813 -1.625505,4.876582 -2.385834,8.914242 -0.76033,4.037659 -0.865199,9.490834 -1.153605,12.584645 -0.288406,3.093811 -0.760324,3.827906 -1.101161,1.38961 z"
         id="path10"
         inkscape:path-effect="#path-effect10"
         inkscape:original-d="M 22.495233,65.755297 C 22.285487,60.144592 22.075746,54.534016 21.865995,48.9232 c -0.4195,-1.258501 -0.838975,-2.516926 -1.258474,-3.775426 -0.996312,-2.202373 -1.992565,-4.404616 -2.988877,-6.606991 0.839,-1.730437 1.677966,-3.460805 2.516949,-5.191208 0.62925,-1.363374 1.258475,-2.726695 1.887712,-4.09004 1.153625,1.46825 2.307203,2.936438 3.460805,4.404659 0.996312,1.887749 1.992565,3.775385 2.988877,5.663135 -1.415812,2.621876 -2.831568,5.243645 -4.247352,7.865468 -0.104875,5.453496 -0.209744,10.906671 -0.314619,16.360168 -0.471937,0.734125 -0.943855,1.46822 -1.415783,2.202332 z"
         transform="translate(0.94385593,0.15730932)"
         sodipodi:nodetypes="ccccccccccc" /><path
         style="opacity:1;fill:#112b00;stroke-width:3.39931"
         d="m 33.87394,76.950477 c -0.943856,-1.022512 -2.464512,-2.018803 -4.194934,-3.172419 -1.730423,-1.153615 -3.670532,-2.4645 -5.217419,-2.831549 -1.546886,-0.367049 -2.700465,0.20974 -3.041297,0.996296 -0.340832,0.786557 0.131087,1.782829 1.153613,2.805351 1.022527,1.022522 2.595588,2.07123 4.194915,3.119968 1.599327,1.048739 3.224825,2.097446 4.693058,2.464498 1.468234,0.367052 2.77912,0.05244 3.251044,-0.629243 0.471925,-0.681683 0.104877,-1.730391 -0.83898,-2.752902 z"
         id="path11"
         inkscape:path-effect="#path-effect11"
         inkscape:original-d="m 34.450742,76.924259 c -1.520658,-0.996294 -3.041314,-1.992585 -4.561972,-2.988879 -1.940187,-1.310936 -3.880296,-2.621822 -5.820444,-3.932732 -1.153625,0.576813 -2.307203,1.153602 -3.460805,1.730401 0.471937,0.996313 0.943856,1.992585 1.415784,2.988879 1.573125,1.04875 3.146186,2.097458 4.71928,3.146187 1.625561,1.048747 3.251058,2.097455 4.876589,3.146184 1.310936,-0.314624 2.621822,-0.629237 3.932732,-0.943856 -0.367062,-1.048747 -0.73411,-2.097455 -1.101164,-3.146184 z" /><path
         style="opacity:1;fill:#112b00;stroke-width:3.39931"
         d="m 71.680614,71.497086 c -0.943856,0.60302 -2.412076,2.07124 -4.430905,2.831569 -2.018829,0.760329 -4.588164,0.812764 -6.42345,1.284701 -1.835285,0.471937 -2.936428,1.363339 -3.434573,2.17611 -0.498145,0.812772 -0.393275,1.546867 0.943879,1.913922 1.337154,0.367055 3.906489,0.367055 6.449682,-0.445726 2.543193,-0.812781 5.06009,-2.438277 6.502096,-3.880291 1.442007,-1.442015 1.809055,-2.700466 1.782833,-3.460796 -0.02622,-0.760331 -0.445706,-1.022508 -1.389562,-0.419489 z"
         id="path12"
         inkscape:path-effect="#path-effect12"
         inkscape:original-d="m 72.204979,70.631885 c -1.468221,1.468221 -2.936441,2.936441 -4.404662,4.404662 -2.569437,0.05244 -5.138772,0.104873 -7.708156,0.157308 -1.101188,0.891437 -2.202331,1.782839 -3.303495,2.67426 0.104873,0.734123 0.209746,1.468218 0.314618,2.202328 2.569435,0 5.13877,0 7.708157,0 2.517,-1.62556 5.033896,-3.251057 7.550846,-4.876588 0.367064,-1.258499 0.73411,-2.51695 1.101166,-3.775424 -0.419499,-0.262187 -0.838983,-0.524365 -1.258474,-0.786546 z" /><path
         id="path13"
         style="opacity:1;fill:#806600;stroke-width:3.39931"
         d="M 47.625,7.9375 A 39.6875,39.6875 0 0 0 19.601904,19.664433 c 0.22156,0.06403 0.45063,0.120537 0.690914,0.156579 1.04874,0.157308 2.254909,-1.14e-4 3.198771,-0.419612 0.943862,-0.419498 1.625241,-1.101293 2.621546,-1.809192 0.996304,-0.707899 2.307541,-1.441678 3.434932,-2.018482 1.127391,-0.576804 2.071132,-0.996547 3.250965,-1.337386 1.179832,-0.340839 2.595595,-0.602771 3.565673,-0.943611 0.970078,-0.340841 1.494471,-0.760415 2.385901,-1.206128 0.891431,-0.445714 2.149848,-0.917455 3.460771,-1.153418 1.310923,-0.235964 2.673984,-0.236377 4.011125,-0.07906 1.33714,0.157312 2.648144,0.471922 3.985286,0.891418 1.337142,0.419497 2.700503,0.943838 4.168738,1.284676 1.468234,0.340838 3.041162,0.498384 4.430737,0.839226 1.389576,0.340841 2.595814,0.865407 3.906738,2.123901 1.310925,1.258494 2.726916,3.250642 4.4049,4.378027 1.677983,1.127385 3.617685,1.389531 5.269445,1.677934 1.651761,0.288404 3.015509,0.603039 4.1429,0.498161 0.548827,-0.05106 1.039518,-0.203676 1.295011,-0.65319 A 39.6875,39.6875 0 0 0 47.625,7.9375 Z" /><path
         style="opacity:1;fill:#806600;stroke-width:3.39931"
         d="m 75.849311,31.016153 c -0.917638,0.183528 -2.280984,1.179821 -3.618128,1.677967 -1.337143,0.498147 -2.648027,0.498147 -4.352232,0.681678 -1.704205,0.183531 -3.80162,0.550578 -4.850349,0.996293 -1.048729,0.445715 -1.048729,0.970069 -0.393261,1.284689 0.655468,0.31462 1.966354,0.41949 3.43459,0.314614 1.468237,-0.104876 3.093734,-0.419489 4.955248,-0.707891 1.861514,-0.288403 3.95893,-0.550579 5.112534,-1.074952 1.153604,-0.524373 1.363345,-1.310903 1.23225,-2.018801 -0.131095,-0.707899 -0.603014,-1.337125 -1.520652,-1.153597 z"
         id="path14"
         inkscape:path-effect="#path-effect14"
         inkscape:original-d="m 76.295021,30.203388 c -1.363347,0.996294 -2.726695,1.992585 -4.090042,2.988879 -1.310939,0 -2.621823,0 -3.932733,0 -2.0975,0.367062 -4.194915,0.73411 -6.292373,1.101164 0,0.524375 0,1.048729 0,1.573094 1.310936,0.104875 2.621822,0.209745 3.932732,0.314618 1.625563,-0.314624 3.25106,-0.629237 4.876588,-0.943856 2.0975,-0.262186 4.194916,-0.524364 6.292374,-0.786545 0.209751,-0.786564 0.419491,-1.573094 0.629237,-2.359642 -0.471937,-0.629248 -0.943856,-1.258474 -1.415783,-1.887712 z" /><path
         style="opacity:1;fill:#806600;stroke-width:3.39931"
         d="m 32.667902,34.686705 c -0.786547,-0.235964 -2.412076,-0.393273 -3.565685,-0.62924 -1.153608,-0.235968 -1.835267,-0.550579 -2.071229,-0.393263 -0.235963,0.157316 -0.02622,0.78654 0.655464,1.206034 0.681686,0.419493 1.835264,0.629235 2.857783,0.707889 1.022519,0.07865 1.913922,0.02622 2.38585,-0.157313 0.471928,-0.18353 0.524364,-0.498143 -0.262183,-0.734107 z"
         id="path15"
         inkscape:path-effect="#path-effect15"
         inkscape:original-d="m 33.506886,34.60805 c -1.625531,-0.157308 -3.25106,-0.314619 -4.876588,-0.471927 -0.681689,-0.314626 -1.363348,-0.629237 -2.045023,-0.943856 0.209751,0.629251 0.419491,1.258475 0.629237,1.887712 1.153626,0.209749 2.307204,0.419492 3.460806,0.629238 0.891436,-0.05244 1.782839,-0.104873 2.674257,-0.157311 0.05244,-0.314624 0.104873,-0.629237 0.157311,-0.943856 z" /><path
         sodipodi:type="star"
         style="opacity:1;fill:#eac840;fill-opacity:1;stroke-width:3.39931"
         id="path16"
         inkscape:flatsided="false"
         sodipodi:sides="10"
         sodipodi:cx="45.494904"
         sodipodi:cy="33.592815"
         sodipodi:r1="13.173658"
         sodipodi:r2="1.3173658"
         sodipodi:arg1="1.0471976"
         sodipodi:arg2="1.3613568"
         inkscape:rounded="0.1"
         inkscape:randomized="0"
         d="m 52.081732,45.001539 c -1.03297,0.596385 -5.146226,-10.368137 -6.312933,-10.120145 -1.166707,0.247991 -0.464681,11.937592 -1.650918,11.812913 -1.186238,-0.124679 1.930853,-11.412874 0.841202,-11.898018 -1.089652,-0.485144 -7.392676,9.384582 -8.279078,8.586462 -0.886402,-0.79812 8.270412,-8.098282 7.674026,-9.131253 -0.596385,-1.03297 -11.496919,3.246981 -11.74491,2.080274 -0.247991,-1.166707 11.450955,-1.690421 11.575633,-2.876659 0.124679,-1.186237 -11.20973,-4.130857 -10.724586,-5.220508 0.485144,-1.089651 10.257622,5.363123 11.055742,4.476721 0.79812,-0.886402 -6.640806,-9.930848 -5.607835,-10.527234 1.032971,-0.596386 5.146226,10.368136 6.312933,10.120145 1.166707,-0.247991 0.464681,-11.937592 1.650918,-11.812913 1.186238,0.124678 -1.930853,11.412874 -0.841202,11.898018 1.089652,0.485144 7.392676,-9.384582 8.279078,-8.586462 0.886402,0.79812 -8.270412,8.098282 -7.674026,9.131252 0.596386,1.032971 11.496919,-3.24698 11.74491,-2.080274 0.247991,1.166707 -11.450955,1.690422 -11.575633,2.87666 -0.124679,1.186237 11.20973,4.130856 10.724586,5.220508 -0.485144,1.089651 -10.257622,-5.363123 -11.055742,-4.476721 -0.79812,0.886402 6.640806,9.930848 5.607835,10.527234 z"
         transform="translate(1.6550598,1.4871635)" /><path
         style="opacity:1;fill:#ffe680;stroke-width:3.39931"
         d="m 42.289989,74.748145 c -2.123676,-0.812765 -4.902806,-2.385858 -6.633215,-3.487029 -1.730409,-1.101172 -2.412072,-1.730398 -1.337096,-2.438298 1.074975,-0.707899 3.906487,-1.49443 6.239928,-2.045016 2.33344,-0.550585 4.168677,-0.865197 5.269846,-1.1536 1.10117,-0.288403 1.468218,-0.55058 3.093776,-0.707889 1.625557,-0.15731 4.509505,-0.209746 7.236225,-0.31462 2.726721,-0.104875 5.296055,-0.26218 7.419748,-0.07865 2.123693,0.183533 3.801624,0.707886 2.779077,2.018818 -1.022546,1.310931 -4.745461,3.408347 -8.363611,5.060107 -3.618149,1.65176 -7.131321,2.857775 -9.622066,3.434575 -2.490745,0.5768 -3.958937,0.524364 -6.082612,-0.288401 z"
         id="path2"
         inkscape:path-effect="#path-effect3"
         inkscape:original-d="m 42.945444,75.508473 c -2.779131,-1.573093 -5.558261,-3.146186 -8.337394,-4.71928 -0.681686,-0.629248 -1.363348,-1.258475 -2.04502,-1.887712 2.831623,-0.786561 5.663136,-1.573091 8.494702,-2.359639 1.835314,-0.314624 3.670551,-0.629237 5.505828,-0.943856 0.367062,-0.262186 0.73411,-0.524364 1.101164,-0.786545 2.884061,-0.05244 5.768009,-0.104873 8.652012,-0.157311 2.569438,-0.15731 5.138772,-0.314618 7.708157,-0.471926 1.678001,0.524375 3.355932,1.048728 5.033899,1.573093 -3.723061,2.097497 -7.445976,4.194913 -11.168962,6.292371 -3.513312,1.206063 -7.026484,2.412077 -10.539725,3.618116 -1.468249,-0.05244 -2.936441,-0.104873 -4.404661,-0.157311 z" /></g><g
       inkscape:label="Layer 1"
       id="g27"
       style="display:inline;opacity:1;stroke-width:36.7079"
       transform="matrix(-0.02724208,0,0,-0.02724208,31.051101,6.2527175)"
       inkscape:transform-center-x="1.208492"
       inkscape:transform-center-y="-0.047139124"><circle
         style="opacity:1;fill:#2b1100;stroke-width:3.39931"
         id="circle5"
         cx="47.625"
         cy="47.625"
         r="47.625"
         sodipodi:insensitive="true" /><circle
         style="opacity:1;fill:#784421;stroke-width:3.39931"
         id="circle6"
         cx="47.625"
         cy="47.625"
         r="46.302082"
         sodipodi:insensitive="true" /><circle
         style="opacity:1;fill:#c87137;stroke-width:3.39931"
         id="circle7"
         cx="47.625"
         cy="47.625"
         r="44.979168"
         sodipodi:insensitive="true" /><circle
         style="opacity:1;fill:#deaa87;stroke-width:3.39931"
         id="circle8"
         cx="47.625"
         cy="47.625"
         r="43.65625"
         sodipodi:insensitive="true" /><circle
         style="opacity:1;fill:#502d16;stroke-width:3.39931"
         id="circle9"
         cx="47.625"
         cy="47.625"
         r="42.333332"
         sodipodi:insensitive="true" /><circle
         style="opacity:1;fill:#d4aa00;stroke-width:3.39931"
         id="circle10"
         cx="47.625"
         cy="47.625"
         r="39.6875" /><circle
         style="opacity:0.5;fill:#ffe680;stroke-width:3.39931"
         id="circle11"
         cx="47.149963"
         cy="35.079979"
         r="6.2923727" /><path
         id="path17"
         style="opacity:1;fill:#165016;stroke-width:3.39931"
         d="m 85.356547,39.1604 c -1.222406,-0.02295 -2.742867,0.415849 -4.60437,1.031979 -3.723006,1.232261 -8.80929,3.172411 -14.367599,5.453414 -5.558307,2.281002 -11.588151,4.902821 -15.704467,5.951574 C 46.563795,52.64612 44.361442,52.121661 40.953056,50.8894 37.544669,49.65714 32.930002,47.717444 27.319263,45.226697 21.708523,42.735949 15.10157,39.694402 10.77557,40.323637 9.9397845,40.445206 9.1915199,40.707501 8.5307454,41.107052 A 39.6875,39.6875 0 0 0 7.9375,47.625 39.6875,39.6875 0 0 0 47.625,87.3125 39.6875,39.6875 0 0 0 87.3125,47.625 39.6875,39.6875 0 0 0 86.427283,39.336617 C 86.098335,39.227366 85.744085,39.167677 85.356547,39.1604 Z" /><path
         id="path18"
         style="opacity:1;fill:#112b00;stroke-width:3.39931"
         d="m 8.3865682,48.243567 c -0.1542249,0.0016 -0.2848974,0.01672 -0.4061768,0.03979 a 39.6875,39.6875 0 0 0 1.0159587,8.138004 c 0.9473656,0.789147 2.2839749,1.281263 4.1294639,1.534274 2.29889,0.31517 5.376362,0.267396 8.490954,0.595829 3.114593,0.328433 6.26617,1.032875 8.768974,1.144116 2.502806,0.111242 4.356611,-0.370384 6.5257,-0.629936 2.169089,-0.259552 4.6533,-0.296815 5.654435,-0.500744 1.001135,-0.20393 0.519035,-0.574507 -0.166915,-0.834058 -0.685949,-0.25955 -1.575723,-0.408111 -2.947623,-0.667659 -1.3719,-0.259549 -3.226193,-0.630317 -5.0245,-1.03818 -1.798308,-0.407863 -3.540644,-0.852523 -5.413106,-1.557011 -1.872462,-0.704488 -3.874857,-1.668421 -5.858557,-2.651001 -1.9837,-0.98258 -3.948818,-1.983779 -6.247681,-2.5585 -2.298864,-0.57472 -4.931146,-0.722953 -6.618201,-0.871265 -0.8435267,-0.07416 -1.4508389,-0.148295 -1.9027258,-0.143659 z" /><path
         id="path19"
         style="opacity:1;fill:#112b00;stroke-width:3.39931"
         d="m 86.408679,45.124377 c -1.03685,0.0525 -2.38949,0.356736 -3.872632,0.70435 -2.373027,0.556179 -5.079551,1.223424 -7.841898,2.039152 -2.762348,0.815728 -5.58038,1.779978 -7.61969,2.744019 -2.039309,0.964041 -3.300034,1.92784 -4.634859,2.762105 -1.334826,0.834264 -2.743936,1.538724 -3.911906,2.076359 -1.16797,0.537637 -2.094503,0.908391 -2.706295,1.631425 -0.611792,0.723035 -0.908626,1.798072 -0.05581,2.16886 0.852814,0.370789 2.855202,0.03735 4.672067,-0.222209 1.816864,-0.259551 3.447937,-0.444716 4.968172,-1.278991 1.520233,-0.834275 2.929371,-2.317535 4.227132,-3.17035 1.297761,-0.852814 2.484181,-1.07531 3.707784,-1.501717 1.223603,-0.426406 2.484104,-1.056778 4.134115,-1.205094 1.65001,-0.148315 3.689395,0.185463 5.246708,-0.129708 1.557311,-0.31517 2.632382,-1.278985 3.522265,-1.872237 0.354949,-0.236631 0.670594,-0.414683 0.960665,-0.596863 A 39.6875,39.6875 0 0 0 87.3125,47.625 39.6875,39.6875 0 0 0 87.179175,45.143498 c -0.23165,-0.02719 -0.488301,-0.03341 -0.770496,-0.01912 z" /><path
         style="opacity:1;fill:#112b00;stroke-width:3.39931"
         d="m 22.626324,62.582889 c -0.340837,-2.438297 -0.550579,-8.048873 -0.865204,-11.483532 -0.314625,-3.434658 -0.7341,-4.693083 -1.442005,-6.42352 -0.707906,-1.730436 -1.704159,-3.932679 -1.782815,-5.899085 -0.07866,-1.966406 0.76031,-3.696774 1.494426,-5.243663 0.734117,-1.546888 1.363342,-2.910209 2.254773,-2.857757 0.891431,0.05245 2.045009,1.520641 3.119966,3.198626 1.074957,1.677985 2.07121,3.565621 1.861459,5.820434 -0.20975,2.254813 -1.625505,4.876582 -2.385834,8.914242 -0.76033,4.037659 -0.865199,9.490834 -1.153605,12.584645 -0.288406,3.093811 -0.760324,3.827906 -1.101161,1.38961 z"
         id="path20"
         inkscape:path-effect="#path-effect28"
         inkscape:original-d="M 22.495233,65.755297 C 22.285487,60.144592 22.075746,54.534016 21.865995,48.9232 c -0.4195,-1.258501 -0.838975,-2.516926 -1.258474,-3.775426 -0.996312,-2.202373 -1.992565,-4.404616 -2.988877,-6.606991 0.839,-1.730437 1.677966,-3.460805 2.516949,-5.191208 0.62925,-1.363374 1.258475,-2.726695 1.887712,-4.09004 1.153625,1.46825 2.307203,2.936438 3.460805,4.404659 0.996312,1.887749 1.992565,3.775385 2.988877,5.663135 -1.415812,2.621876 -2.831568,5.243645 -4.247352,7.865468 -0.104875,5.453496 -0.209744,10.906671 -0.314619,16.360168 -0.471937,0.734125 -0.943855,1.46822 -1.415783,2.202332 z"
         transform="translate(0.94385593,0.15730932)"
         sodipodi:nodetypes="ccccccccccc" /><path
         style="opacity:1;fill:#112b00;stroke-width:3.39931"
         d="m 33.87394,76.950477 c -0.943856,-1.022512 -2.464512,-2.018803 -4.194934,-3.172419 -1.730423,-1.153615 -3.670532,-2.4645 -5.217419,-2.831549 -1.546886,-0.367049 -2.700465,0.20974 -3.041297,0.996296 -0.340832,0.786557 0.131087,1.782829 1.153613,2.805351 1.022527,1.022522 2.595588,2.07123 4.194915,3.119968 1.599327,1.048739 3.224825,2.097446 4.693058,2.464498 1.468234,0.367052 2.77912,0.05244 3.251044,-0.629243 0.471925,-0.681683 0.104877,-1.730391 -0.83898,-2.752902 z"
         id="path21"
         inkscape:path-effect="#path-effect30"
         inkscape:original-d="m 34.450742,76.924259 c -1.520658,-0.996294 -3.041314,-1.992585 -4.561972,-2.988879 -1.940187,-1.310936 -3.880296,-2.621822 -5.820444,-3.932732 -1.153625,0.576813 -2.307203,1.153602 -3.460805,1.730401 0.471937,0.996313 0.943856,1.992585 1.415784,2.988879 1.573125,1.04875 3.146186,2.097458 4.71928,3.146187 1.625561,1.048747 3.251058,2.097455 4.876589,3.146184 1.310936,-0.314624 2.621822,-0.629237 3.932732,-0.943856 -0.367062,-1.048747 -0.73411,-2.097455 -1.101164,-3.146184 z" /><path
         style="opacity:1;fill:#112b00;stroke-width:3.39931"
         d="m 71.680614,71.497086 c -0.943856,0.60302 -2.412076,2.07124 -4.430905,2.831569 -2.018829,0.760329 -4.588164,0.812764 -6.42345,1.284701 -1.835285,0.471937 -2.936428,1.363339 -3.434573,2.17611 -0.498145,0.812772 -0.393275,1.546867 0.943879,1.913922 1.337154,0.367055 3.906489,0.367055 6.449682,-0.445726 2.543193,-0.812781 5.06009,-2.438277 6.502096,-3.880291 1.442007,-1.442015 1.809055,-2.700466 1.782833,-3.460796 -0.02622,-0.760331 -0.445706,-1.022508 -1.389562,-0.419489 z"
         id="path22"
         inkscape:path-effect="#path-effect32"
         inkscape:original-d="m 72.204979,70.631885 c -1.468221,1.468221 -2.936441,2.936441 -4.404662,4.404662 -2.569437,0.05244 -5.138772,0.104873 -7.708156,0.157308 -1.101188,0.891437 -2.202331,1.782839 -3.303495,2.67426 0.104873,0.734123 0.209746,1.468218 0.314618,2.202328 2.569435,0 5.13877,0 7.708157,0 2.517,-1.62556 5.033896,-3.251057 7.550846,-4.876588 0.367064,-1.258499 0.73411,-2.51695 1.101166,-3.775424 -0.419499,-0.262187 -0.838983,-0.524365 -1.258474,-0.786546 z" /><path
         id="path23"
         style="opacity:1;fill:#806600;stroke-width:3.39931"
         d="M 47.625,7.9375 A 39.6875,39.6875 0 0 0 19.601904,19.664433 c 0.22156,0.06403 0.45063,0.120537 0.690914,0.156579 1.04874,0.157308 2.254909,-1.14e-4 3.198771,-0.419612 0.943862,-0.419498 1.625241,-1.101293 2.621546,-1.809192 0.996304,-0.707899 2.307541,-1.441678 3.434932,-2.018482 1.127391,-0.576804 2.071132,-0.996547 3.250965,-1.337386 1.179832,-0.340839 2.595595,-0.602771 3.565673,-0.943611 0.970078,-0.340841 1.494471,-0.760415 2.385901,-1.206128 0.891431,-0.445714 2.149848,-0.917455 3.460771,-1.153418 1.310923,-0.235964 2.673984,-0.236377 4.011125,-0.07906 1.33714,0.157312 2.648144,0.471922 3.985286,0.891418 1.337142,0.419497 2.700503,0.943838 4.168738,1.284676 1.468234,0.340838 3.041162,0.498384 4.430737,0.839226 1.389576,0.340841 2.595814,0.865407 3.906738,2.123901 1.310925,1.258494 2.726916,3.250642 4.4049,4.378027 1.677983,1.127385 3.617685,1.389531 5.269445,1.677934 1.651761,0.288404 3.015509,0.603039 4.1429,0.498161 0.548827,-0.05106 1.039518,-0.203676 1.295011,-0.65319 A 39.6875,39.6875 0 0 0 47.625,7.9375 Z" /><path
         style="opacity:1;fill:#806600;stroke-width:3.39931"
         d="m 75.849311,31.016153 c -0.917638,0.183528 -2.280984,1.179821 -3.618128,1.677967 -1.337143,0.498147 -2.648027,0.498147 -4.352232,0.681678 -1.704205,0.183531 -3.80162,0.550578 -4.850349,0.996293 -1.048729,0.445715 -1.048729,0.970069 -0.393261,1.284689 0.655468,0.31462 1.966354,0.41949 3.43459,0.314614 1.468237,-0.104876 3.093734,-0.419489 4.955248,-0.707891 1.861514,-0.288403 3.95893,-0.550579 5.112534,-1.074952 1.153604,-0.524373 1.363345,-1.310903 1.23225,-2.018801 -0.131095,-0.707899 -0.603014,-1.337125 -1.520652,-1.153597 z"
         id="path24"
         inkscape:path-effect="#path-effect34"
         inkscape:original-d="m 76.295021,30.203388 c -1.363347,0.996294 -2.726695,1.992585 -4.090042,2.988879 -1.310939,0 -2.621823,0 -3.932733,0 -2.0975,0.367062 -4.194915,0.73411 -6.292373,1.101164 0,0.524375 0,1.048729 0,1.573094 1.310936,0.104875 2.621822,0.209745 3.932732,0.314618 1.625563,-0.314624 3.25106,-0.629237 4.876588,-0.943856 2.0975,-0.262186 4.194916,-0.524364 6.292374,-0.786545 0.209751,-0.786564 0.419491,-1.573094 0.629237,-2.359642 -0.471937,-0.629248 -0.943856,-1.258474 -1.415783,-1.887712 z" /><path
         style="opacity:1;fill:#806600;stroke-width:3.39931"
         d="m 32.667902,34.686705 c -0.786547,-0.235964 -2.412076,-0.393273 -3.565685,-0.62924 -1.153608,-0.235968 -1.835267,-0.550579 -2.071229,-0.393263 -0.235963,0.157316 -0.02622,0.78654 0.655464,1.206034 0.681686,0.419493 1.835264,0.629235 2.857783,0.707889 1.022519,0.07865 1.913922,0.02622 2.38585,-0.157313 0.471928,-0.18353 0.524364,-0.498143 -0.262183,-0.734107 z"
         id="path25"
         inkscape:path-effect="#path-effect36"
         inkscape:original-d="m 33.506886,34.60805 c -1.625531,-0.157308 -3.25106,-0.314619 -4.876588,-0.471927 -0.681689,-0.314626 -1.363348,-0.629237 -2.045023,-0.943856 0.209751,0.629251 0.419491,1.258475 0.629237,1.887712 1.153626,0.209749 2.307204,0.419492 3.460806,0.629238 0.891436,-0.05244 1.782839,-0.104873 2.674257,-0.157311 0.05244,-0.314624 0.104873,-0.629237 0.157311,-0.943856 z" /><path
         sodipodi:type="star"
         style="opacity:1;fill:#eac840;fill-opacity:1;stroke-width:3.39931"
         id="path26"
         inkscape:flatsided="false"
         sodipodi:sides="10"
         sodipodi:cx="45.494904"
         sodipodi:cy="33.592815"
         sodipodi:r1="13.173658"
         sodipodi:r2="1.3173658"
         sodipodi:arg1="1.0471976"
         sodipodi:arg2="1.3613568"
         inkscape:rounded="0.1"
         inkscape:randomized="0"
         d="m 52.081732,45.001539 c -1.03297,0.596385 -5.146226,-10.368137 -6.312933,-10.120145 -1.166707,0.247991 -0.464681,11.937592 -1.650918,11.812913 -1.186238,-0.124679 1.930853,-11.412874 0.841202,-11.898018 -1.089652,-0.485144 -7.392676,9.384582 -8.279078,8.586462 -0.886402,-0.79812 8.270412,-8.098282 7.674026,-9.131253 -0.596385,-1.03297 -11.496919,3.246981 -11.74491,2.080274 -0.247991,-1.166707 11.450955,-1.690421 11.575633,-2.876659 0.124679,-1.186237 -11.20973,-4.130857 -10.724586,-5.220508 0.485144,-1.089651 10.257622,5.363123 11.055742,4.476721 0.79812,-0.886402 -6.640806,-9.930848 -5.607835,-10.527234 1.032971,-0.596386 5.146226,10.368136 6.312933,10.120145 1.166707,-0.247991 0.464681,-11.937592 1.650918,-11.812913 1.186238,0.124678 -1.930853,11.412874 -0.841202,11.898018 1.089652,0.485144 7.392676,-9.384582 8.279078,-8.586462 0.886402,0.79812 -8.270412,8.098282 -7.674026,9.131252 0.596386,1.032971 11.496919,-3.24698 11.74491,-2.080274 0.247991,1.166707 -11.450955,1.690422 -11.575633,2.87666 -0.124679,1.186237 11.20973,4.130856 10.724586,5.220508 -0.485144,1.089651 -10.257622,-5.363123 -11.055742,-4.476721 -0.79812,0.886402 6.640806,9.930848 5.607835,10.527234 z"
         transform="translate(1.6550598,1.4871635)" /><path
         style="opacity:1;fill:#ffe680;stroke-width:3.39931"
         d="m 42.289989,74.748145 c -2.123676,-0.812765 -4.902806,-2.385858 -6.633215,-3.487029 -1.730409,-1.101172 -2.412072,-1.730398 -1.337096,-2.438298 1.074975,-0.707899 3.906487,-1.49443 6.239928,-2.045016 2.33344,-0.550585 4.168677,-0.865197 5.269846,-1.1536 1.10117,-0.288403 1.468218,-0.55058 3.093776,-0.707889 1.625557,-0.15731 4.509505,-0.209746 7.236225,-0.31462 2.726721,-0.104875 5.296055,-0.26218 7.419748,-0.07865 2.123693,0.183533 3.801624,0.707886 2.779077,2.018818 -1.022546,1.310931 -4.745461,3.408347 -8.363611,5.060107 -3.618149,1.65176 -7.131321,2.857775 -9.622066,3.434575 -2.490745,0.5768 -3.958937,0.524364 -6.082612,-0.288401 z"
         id="path27"
         inkscape:path-effect="#path-effect38"
         inkscape:original-d="m 42.945444,75.508473 c -2.779131,-1.573093 -5.558261,-3.146186 -8.337394,-4.71928 -0.681686,-0.629248 -1.363348,-1.258475 -2.04502,-1.887712 2.831623,-0.786561 5.663136,-1.573091 8.494702,-2.359639 1.835314,-0.314624 3.670551,-0.629237 5.505828,-0.943856 0.367062,-0.262186 0.73411,-0.524364 1.101164,-0.786545 2.884061,-0.05244 5.768009,-0.104873 8.652012,-0.157311 2.569438,-0.15731 5.138772,-0.314618 7.708157,-0.471926 1.678001,0.524375 3.355932,1.048728 5.033899,1.573093 -3.723061,2.097497 -7.445976,4.194913 -11.168962,6.292371 -3.513312,1.206063 -7.026484,2.412077 -10.539725,3.618116 -1.468249,-0.05244 -2.936441,-0.104873 -4.404661,-0.157311 z" /></g><g
       inkscape:label="Layer 1"
       id="g54"
       style="display:inline;opacity:1;stroke-width:36.7079"
       transform="matrix(0,0.02724208,-0.02724208,0,59.703662,3.8337754)"
       inkscape:transform-center-x="0.047139024"
       inkscape:transform-center-y="1.208492"><circle
         style="opacity:1;fill:#2b1100;stroke-width:3.39931"
         id="circle38"
         cx="47.625"
         cy="47.625"
         r="47.625"
         sodipodi:insensitive="true" /><circle
         style="opacity:1;fill:#784421;stroke-width:3.39931"
         id="circle39"
         cx="47.625"
         cy="47.625"
         r="46.302082"
         sodipodi:insensitive="true" /><circle
         style="opacity:1;fill:#c87137;stroke-width:3.39931"
         id="circle40"
         cx="47.625"
         cy="47.625"
         r="44.979168"
         sodipodi:insensitive="true" /><circle
         style="opacity:1;fill:#deaa87;stroke-width:3.39931"
         id="circle41"
         cx="47.625"
         cy="47.625"
         r="43.65625"
         sodipodi:insensitive="true" /><circle
         style="opacity:1;fill:#502d16;stroke-width:3.39931"
         id="circle42"
         cx="47.625"
         cy="47.625"
         r="42.333332"
         sodipodi:insensitive="true" /><circle
         style="opacity:1;fill:#d4aa00;stroke-width:3.39931"
         id="circle43"
         cx="47.625"
         cy="47.625"
         r="39.6875" /><circle
         style="opacity:0.5;fill:#ffe680;stroke-width:3.39931"
         id="circle44"
         cx="47.149963"
         cy="35.079979"
         r="6.2923727" /><path
         id="path44"
         style="opacity:1;fill:#165016;stroke-width:3.39931"
         d="m 85.356547,39.1604 c -1.222406,-0.02295 -2.742867,0.415849 -4.60437,1.031979 -3.723006,1.232261 -8.80929,3.172411 -14.367599,5.453414 -5.558307,2.281002 -11.588151,4.902821 -15.704467,5.951574 C 46.563795,52.64612 44.361442,52.121661 40.953056,50.8894 37.544669,49.65714 32.930002,47.717444 27.319263,45.226697 21.708523,42.735949 15.10157,39.694402 10.77557,40.323637 9.9397845,40.445206 9.1915199,40.707501 8.5307454,41.107052 A 39.6875,39.6875 0 0 0 7.9375,47.625 39.6875,39.6875 0 0 0 47.625,87.3125 39.6875,39.6875 0 0 0 87.3125,47.625 39.6875,39.6875 0 0 0 86.427283,39.336617 C 86.098335,39.227366 85.744085,39.167677 85.356547,39.1604 Z" /><path
         id="path45"
         style="opacity:1;fill:#112b00;stroke-width:3.39931"
         d="m 8.3865682,48.243567 c -0.1542249,0.0016 -0.2848974,0.01672 -0.4061768,0.03979 a 39.6875,39.6875 0 0 0 1.0159587,8.138004 c 0.9473656,0.789147 2.2839749,1.281263 4.1294639,1.534274 2.29889,0.31517 5.376362,0.267396 8.490954,0.595829 3.114593,0.328433 6.26617,1.032875 8.768974,1.144116 2.502806,0.111242 4.356611,-0.370384 6.5257,-0.629936 2.169089,-0.259552 4.6533,-0.296815 5.654435,-0.500744 1.001135,-0.20393 0.519035,-0.574507 -0.166915,-0.834058 -0.685949,-0.25955 -1.575723,-0.408111 -2.947623,-0.667659 -1.3719,-0.259549 -3.226193,-0.630317 -5.0245,-1.03818 -1.798308,-0.407863 -3.540644,-0.852523 -5.413106,-1.557011 -1.872462,-0.704488 -3.874857,-1.668421 -5.858557,-2.651001 -1.9837,-0.98258 -3.948818,-1.983779 -6.247681,-2.5585 -2.298864,-0.57472 -4.931146,-0.722953 -6.618201,-0.871265 -0.8435267,-0.07416 -1.4508389,-0.148295 -1.9027258,-0.143659 z" /><path
         id="path46"
         style="opacity:1;fill:#112b00;stroke-width:3.39931"
         d="m 86.408679,45.124377 c -1.03685,0.0525 -2.38949,0.356736 -3.872632,0.70435 -2.373027,0.556179 -5.079551,1.223424 -7.841898,2.039152 -2.762348,0.815728 -5.58038,1.779978 -7.61969,2.744019 -2.039309,0.964041 -3.300034,1.92784 -4.634859,2.762105 -1.334826,0.834264 -2.743936,1.538724 -3.911906,2.076359 -1.16797,0.537637 -2.094503,0.908391 -2.706295,1.631425 -0.611792,0.723035 -0.908626,1.798072 -0.05581,2.16886 0.852814,0.370789 2.855202,0.03735 4.672067,-0.222209 1.816864,-0.259551 3.447937,-0.444716 4.968172,-1.278991 1.520233,-0.834275 2.929371,-2.317535 4.227132,-3.17035 1.297761,-0.852814 2.484181,-1.07531 3.707784,-1.501717 1.223603,-0.426406 2.484104,-1.056778 4.134115,-1.205094 1.65001,-0.148315 3.689395,0.185463 5.246708,-0.129708 1.557311,-0.31517 2.632382,-1.278985 3.522265,-1.872237 0.354949,-0.236631 0.670594,-0.414683 0.960665,-0.596863 A 39.6875,39.6875 0 0 0 87.3125,47.625 39.6875,39.6875 0 0 0 87.179175,45.143498 c -0.23165,-0.02719 -0.488301,-0.03341 -0.770496,-0.01912 z" /><path
         style="opacity:1;fill:#112b00;stroke-width:3.39931"
         d="m 22.626324,62.582889 c -0.340837,-2.438297 -0.550579,-8.048873 -0.865204,-11.483532 -0.314625,-3.434658 -0.7341,-4.693083 -1.442005,-6.42352 -0.707906,-1.730436 -1.704159,-3.932679 -1.782815,-5.899085 -0.07866,-1.966406 0.76031,-3.696774 1.494426,-5.243663 0.734117,-1.546888 1.363342,-2.910209 2.254773,-2.857757 0.891431,0.05245 2.045009,1.520641 3.119966,3.198626 1.074957,1.677985 2.07121,3.565621 1.861459,5.820434 -0.20975,2.254813 -1.625505,4.876582 -2.385834,8.914242 -0.76033,4.037659 -0.865199,9.490834 -1.153605,12.584645 -0.288406,3.093811 -0.760324,3.827906 -1.101161,1.38961 z"
         id="path47"
         inkscape:path-effect="#path-effect55"
         inkscape:original-d="M 22.495233,65.755297 C 22.285487,60.144592 22.075746,54.534016 21.865995,48.9232 c -0.4195,-1.258501 -0.838975,-2.516926 -1.258474,-3.775426 -0.996312,-2.202373 -1.992565,-4.404616 -2.988877,-6.606991 0.839,-1.730437 1.677966,-3.460805 2.516949,-5.191208 0.62925,-1.363374 1.258475,-2.726695 1.887712,-4.09004 1.153625,1.46825 2.307203,2.936438 3.460805,4.404659 0.996312,1.887749 1.992565,3.775385 2.988877,5.663135 -1.415812,2.621876 -2.831568,5.243645 -4.247352,7.865468 -0.104875,5.453496 -0.209744,10.906671 -0.314619,16.360168 -0.471937,0.734125 -0.943855,1.46822 -1.415783,2.202332 z"
         transform="translate(0.94385593,0.15730932)"
         sodipodi:nodetypes="ccccccccccc" /><path
         style="opacity:1;fill:#112b00;stroke-width:3.39931"
         d="m 33.87394,76.950477 c -0.943856,-1.022512 -2.464512,-2.018803 -4.194934,-3.172419 -1.730423,-1.153615 -3.670532,-2.4645 -5.217419,-2.831549 -1.546886,-0.367049 -2.700465,0.20974 -3.041297,0.996296 -0.340832,0.786557 0.131087,1.782829 1.153613,2.805351 1.022527,1.022522 2.595588,2.07123 4.194915,3.119968 1.599327,1.048739 3.224825,2.097446 4.693058,2.464498 1.468234,0.367052 2.77912,0.05244 3.251044,-0.629243 0.471925,-0.681683 0.104877,-1.730391 -0.83898,-2.752902 z"
         id="path48"
         inkscape:path-effect="#path-effect57"
         inkscape:original-d="m 34.450742,76.924259 c -1.520658,-0.996294 -3.041314,-1.992585 -4.561972,-2.988879 -1.940187,-1.310936 -3.880296,-2.621822 -5.820444,-3.932732 -1.153625,0.576813 -2.307203,1.153602 -3.460805,1.730401 0.471937,0.996313 0.943856,1.992585 1.415784,2.988879 1.573125,1.04875 3.146186,2.097458 4.71928,3.146187 1.625561,1.048747 3.251058,2.097455 4.876589,3.146184 1.310936,-0.314624 2.621822,-0.629237 3.932732,-0.943856 -0.367062,-1.048747 -0.73411,-2.097455 -1.101164,-3.146184 z" /><path
         style="opacity:1;fill:#112b00;stroke-width:3.39931"
         d="m 71.680614,71.497086 c -0.943856,0.60302 -2.412076,2.07124 -4.430905,2.831569 -2.018829,0.760329 -4.588164,0.812764 -6.42345,1.284701 -1.835285,0.471937 -2.936428,1.363339 -3.434573,2.17611 -0.498145,0.812772 -0.393275,1.546867 0.943879,1.913922 1.337154,0.367055 3.906489,0.367055 6.449682,-0.445726 2.543193,-0.812781 5.06009,-2.438277 6.502096,-3.880291 1.442007,-1.442015 1.809055,-2.700466 1.782833,-3.460796 -0.02622,-0.760331 -0.445706,-1.022508 -1.389562,-0.419489 z"
         id="path49"
         inkscape:path-effect="#path-effect59"
         inkscape:original-d="m 72.204979,70.631885 c -1.468221,1.468221 -2.936441,2.936441 -4.404662,4.404662 -2.569437,0.05244 -5.138772,0.104873 -7.708156,0.157308 -1.101188,0.891437 -2.202331,1.782839 -3.303495,2.67426 0.104873,0.734123 0.209746,1.468218 0.314618,2.202328 2.569435,0 5.13877,0 7.708157,0 2.517,-1.62556 5.033896,-3.251057 7.550846,-4.876588 0.367064,-1.258499 0.73411,-2.51695 1.101166,-3.775424 -0.419499,-0.262187 -0.838983,-0.524365 -1.258474,-0.786546 z" /><path
         id="path50"
         style="opacity:1;fill:#806600;stroke-width:3.39931"
         d="M 47.625,7.9375 A 39.6875,39.6875 0 0 0 19.601904,19.664433 c 0.22156,0.06403 0.45063,0.120537 0.690914,0.156579 1.04874,0.157308 2.254909,-1.14e-4 3.198771,-0.419612 0.943862,-0.419498 1.625241,-1.101293 2.621546,-1.809192 0.996304,-0.707899 2.307541,-1.441678 3.434932,-2.018482 1.127391,-0.576804 2.071132,-0.996547 3.250965,-1.337386 1.179832,-0.340839 2.595595,-0.602771 3.565673,-0.943611 0.970078,-0.340841 1.494471,-0.760415 2.385901,-1.206128 0.891431,-0.445714 2.149848,-0.917455 3.460771,-1.153418 1.310923,-0.235964 2.673984,-0.236377 4.011125,-0.07906 1.33714,0.157312 2.648144,0.471922 3.985286,0.891418 1.337142,0.419497 2.700503,0.943838 4.168738,1.284676 1.468234,0.340838 3.041162,0.498384 4.430737,0.839226 1.389576,0.340841 2.595814,0.865407 3.906738,2.123901 1.310925,1.258494 2.726916,3.250642 4.4049,4.378027 1.677983,1.127385 3.617685,1.389531 5.269445,1.677934 1.651761,0.288404 3.015509,0.603039 4.1429,0.498161 0.548827,-0.05106 1.039518,-0.203676 1.295011,-0.65319 A 39.6875,39.6875 0 0 0 47.625,7.9375 Z" /><path
         style="opacity:1;fill:#806600;stroke-width:3.39931"
         d="m 75.849311,31.016153 c -0.917638,0.183528 -2.280984,1.179821 -3.618128,1.677967 -1.337143,0.498147 -2.648027,0.498147 -4.352232,0.681678 -1.704205,0.183531 -3.80162,0.550578 -4.850349,0.996293 -1.048729,0.445715 -1.048729,0.970069 -0.393261,1.284689 0.655468,0.31462 1.966354,0.41949 3.43459,0.314614 1.468237,-0.104876 3.093734,-0.419489 4.955248,-0.707891 1.861514,-0.288403 3.95893,-0.550579 5.112534,-1.074952 1.153604,-0.524373 1.363345,-1.310903 1.23225,-2.018801 -0.131095,-0.707899 -0.603014,-1.337125 -1.520652,-1.153597 z"
         id="path51"
         inkscape:path-effect="#path-effect61"
         inkscape:original-d="m 76.295021,30.203388 c -1.363347,0.996294 -2.726695,1.992585 -4.090042,2.988879 -1.310939,0 -2.621823,0 -3.932733,0 -2.0975,0.367062 -4.194915,0.73411 -6.292373,1.101164 0,0.524375 0,1.048729 0,1.573094 1.310936,0.104875 2.621822,0.209745 3.932732,0.314618 1.625563,-0.314624 3.25106,-0.629237 4.876588,-0.943856 2.0975,-0.262186 4.194916,-0.524364 6.292374,-0.786545 0.209751,-0.786564 0.419491,-1.573094 0.629237,-2.359642 -0.471937,-0.629248 -0.943856,-1.258474 -1.415783,-1.887712 z" /><path
         style="opacity:1;fill:#806600;stroke-width:3.39931"
         d="m 32.667902,34.686705 c -0.786547,-0.235964 -2.412076,-0.393273 -3.565685,-0.62924 -1.153608,-0.235968 -1.835267,-0.550579 -2.071229,-0.393263 -0.235963,0.157316 -0.02622,0.78654 0.655464,1.206034 0.681686,0.419493 1.835264,0.629235 2.857783,0.707889 1.022519,0.07865 1.913922,0.02622 2.38585,-0.157313 0.471928,-0.18353 0.524364,-0.498143 -0.262183,-0.734107 z"
         id="path52"
         inkscape:path-effect="#path-effect63"
         inkscape:original-d="m 33.506886,34.60805 c -1.625531,-0.157308 -3.25106,-0.314619 -4.876588,-0.471927 -0.681689,-0.314626 -1.363348,-0.629237 -2.045023,-0.943856 0.209751,0.629251 0.419491,1.258475 0.629237,1.887712 1.153626,0.209749 2.307204,0.419492 3.460806,0.629238 0.891436,-0.05244 1.782839,-0.104873 2.674257,-0.157311 0.05244,-0.314624 0.104873,-0.629237 0.157311,-0.943856 z" /><path
         sodipodi:type="star"
         style="opacity:1;fill:#eac840;fill-opacity:1;stroke-width:3.39931"
         id="path53"
         inkscape:flatsided="false"
         sodipodi:sides="10"
         sodipodi:cx="45.494904"
         sodipodi:cy="33.592815"
         sodipodi:r1="13.173658"
         sodipodi:r2="1.3173658"
         sodipodi:arg1="1.0471976"
         sodipodi:arg2="1.3613568"
         inkscape:rounded="0.1"
         inkscape:randomized="0"
         d="m 52.081732,45.001539 c -1.03297,0.596385 -5.146226,-10.368137 -6.312933,-10.120145 -1.166707,0.247991 -0.464681,11.937592 -1.650918,11.812913 -1.186238,-0.124679 1.930853,-11.412874 0.841202,-11.898018 -1.089652,-0.485144 -7.392676,9.384582 -8.279078,8.586462 -0.886402,-0.79812 8.270412,-8.098282 7.674026,-9.131253 -0.596385,-1.03297 -11.496919,3.246981 -11.74491,2.080274 -0.247991,-1.166707 11.450955,-1.690421 11.575633,-2.876659 0.124679,-1.186237 -11.20973,-4.130857 -10.724586,-5.220508 0.485144,-1.089651 10.257622,5.363123 11.055742,4.476721 0.79812,-0.886402 -6.640806,-9.930848 -5.607835,-10.527234 1.032971,-0.596386 5.146226,10.368136 6.312933,10.120145 1.166707,-0.247991 0.464681,-11.937592 1.650918,-11.812913 1.186238,0.124678 -1.930853,11.412874 -0.841202,11.898018 1.089652,0.485144 7.392676,-9.384582 8.279078,-8.586462 0.886402,0.79812 -8.270412,8.098282 -7.674026,9.131252 0.596386,1.032971 11.496919,-3.24698 11.74491,-2.080274 0.247991,1.166707 -11.450955,1.690422 -11.575633,2.87666 -0.124679,1.186237 11.20973,4.130856 10.724586,5.220508 -0.485144,1.089651 -10.257622,-5.363123 -11.055742,-4.476721 -0.79812,0.886402 6.640806,9.930848 5.607835,10.527234 z"
         transform="translate(1.6550598,1.4871635)" /><path
         style="opacity:1;fill:#ffe680;stroke-width:3.39931"
         d="m 42.289989,74.748145 c -2.123676,-0.812765 -4.902806,-2.385858 -6.633215,-3.487029 -1.730409,-1.101172 -2.412072,-1.730398 -1.337096,-2.438298 1.074975,-0.707899 3.906487,-1.49443 6.239928,-2.045016 2.33344,-0.550585 4.168677,-0.865197 5.269846,-1.1536 1.10117,-0.288403 1.468218,-0.55058 3.093776,-0.707889 1.625557,-0.15731 4.509505,-0.209746 7.236225,-0.31462 2.726721,-0.104875 5.296055,-0.26218 7.419748,-0.07865 2.123693,0.183533 3.801624,0.707886 2.779077,2.018818 -1.022546,1.310931 -4.745461,3.408347 -8.363611,5.060107 -3.618149,1.65176 -7.131321,2.857775 -9.622066,3.434575 -2.490745,0.5768 -3.958937,0.524364 -6.082612,-0.288401 z"
         id="path54"
         inkscape:path-effect="#path-effect65"
         inkscape:original-d="m 42.945444,75.508473 c -2.779131,-1.573093 -5.558261,-3.146186 -8.337394,-4.71928 -0.681686,-0.629248 -1.363348,-1.258475 -2.04502,-1.887712 2.831623,-0.786561 5.663136,-1.573091 8.494702,-2.359639 1.835314,-0.314624 3.670551,-0.629237 5.505828,-0.943856 0.367062,-0.262186 0.73411,-0.524364 1.101164,-0.786545 2.884061,-0.05244 5.768009,-0.104873 8.652012,-0.157311 2.569438,-0.15731 5.138772,-0.314618 7.708157,-0.471926 1.678001,0.524375 3.355932,1.048728 5.033899,1.573093 -3.723061,2.097497 -7.445976,4.194913 -11.168962,6.292371 -3.513312,1.206063 -7.026484,2.412077 -10.539725,3.618116 -1.468249,-0.05244 -2.936441,-0.104873 -4.404661,-0.157311 z" /></g><g
       inkscape:label="Layer 1"
       id="g81"
       style="display:inline;opacity:1;stroke-width:36.1599"
       transform="matrix(0.02765497,0,0,0.02765497,91.718742,11.470562)"
       inkscape:transform-center-x="-1.2268088"
       inkscape:transform-center-y="0.047854802"><circle
         style="opacity:1;fill:#2b1100;stroke-width:3.34856"
         id="circle65"
         cx="47.625"
         cy="47.625"
         r="47.625"
         sodipodi:insensitive="true" /><circle
         style="opacity:1;fill:#784421;stroke-width:3.34856"
         id="circle66"
         cx="47.625"
         cy="47.625"
         r="46.302082"
         sodipodi:insensitive="true" /><circle
         style="opacity:1;fill:#c87137;stroke-width:3.34856"
         id="circle67"
         cx="47.625"
         cy="47.625"
         r="44.979168"
         sodipodi:insensitive="true" /><circle
         style="opacity:1;fill:#deaa87;stroke-width:3.34856"
         id="circle68"
         cx="47.625"
         cy="47.625"
         r="43.65625"
         sodipodi:insensitive="true" /><circle
         style="opacity:1;fill:#502d16;stroke-width:3.34856"
         id="circle69"
         cx="47.625"
         cy="47.625"
         r="42.333332"
         sodipodi:insensitive="true" /><circle
         style="opacity:1;fill:#d4aa00;stroke-width:3.34856"
         id="circle70"
         cx="47.625"
         cy="47.625"
         r="39.6875" /><circle
         style="opacity:0.5;fill:#ffe680;stroke-width:3.34856"
         id="circle71"
         cx="47.149963"
         cy="35.079979"
         r="6.2923727" /><path
         id="path71"
         style="opacity:1;fill:#165016;stroke-width:3.34856"
         d="m 85.356547,39.1604 c -1.222406,-0.02295 -2.742867,0.415849 -4.60437,1.031979 -3.723006,1.232261 -8.80929,3.172411 -14.367599,5.453414 -5.558307,2.281002 -11.588151,4.902821 -15.704467,5.951574 C 46.563795,52.64612 44.361442,52.121661 40.953056,50.8894 37.544669,49.65714 32.930002,47.717444 27.319263,45.226697 21.708523,42.735949 15.10157,39.694402 10.77557,40.323637 9.9397845,40.445206 9.1915199,40.707501 8.5307454,41.107052 A 39.6875,39.6875 0 0 0 7.9375,47.625 39.6875,39.6875 0 0 0 47.625,87.3125 39.6875,39.6875 0 0 0 87.3125,47.625 39.6875,39.6875 0 0 0 86.427283,39.336617 C 86.098335,39.227366 85.744085,39.167677 85.356547,39.1604 Z" /><path
         id="path72"
         style="opacity:1;fill:#112b00;stroke-width:3.34856"
         d="m 8.3865682,48.243567 c -0.1542249,0.0016 -0.2848974,0.01672 -0.4061768,0.03979 a 39.6875,39.6875 0 0 0 1.0159587,8.138004 c 0.9473656,0.789147 2.2839749,1.281263 4.1294639,1.534274 2.29889,0.31517 5.376362,0.267396 8.490954,0.595829 3.114593,0.328433 6.26617,1.032875 8.768974,1.144116 2.502806,0.111242 4.356611,-0.370384 6.5257,-0.629936 2.169089,-0.259552 4.6533,-0.296815 5.654435,-0.500744 1.001135,-0.20393 0.519035,-0.574507 -0.166915,-0.834058 -0.685949,-0.25955 -1.575723,-0.408111 -2.947623,-0.667659 -1.3719,-0.259549 -3.226193,-0.630317 -5.0245,-1.03818 -1.798308,-0.407863 -3.540644,-0.852523 -5.413106,-1.557011 -1.872462,-0.704488 -3.874857,-1.668421 -5.858557,-2.651001 -1.9837,-0.98258 -3.948818,-1.983779 -6.247681,-2.5585 -2.298864,-0.57472 -4.931146,-0.722953 -6.618201,-0.871265 -0.8435267,-0.07416 -1.4508389,-0.148295 -1.9027258,-0.143659 z" /><path
         id="path73"
         style="opacity:1;fill:#112b00;stroke-width:3.34856"
         d="m 86.408679,45.124377 c -1.03685,0.0525 -2.38949,0.356736 -3.872632,0.70435 -2.373027,0.556179 -5.079551,1.223424 -7.841898,2.039152 -2.762348,0.815728 -5.58038,1.779978 -7.61969,2.744019 -2.039309,0.964041 -3.300034,1.92784 -4.634859,2.762105 -1.334826,0.834264 -2.743936,1.538724 -3.911906,2.076359 -1.16797,0.537637 -2.094503,0.908391 -2.706295,1.631425 -0.611792,0.723035 -0.908626,1.798072 -0.05581,2.16886 0.852814,0.370789 2.855202,0.03735 4.672067,-0.222209 1.816864,-0.259551 3.447937,-0.444716 4.968172,-1.278991 1.520233,-0.834275 2.929371,-2.317535 4.227132,-3.17035 1.297761,-0.852814 2.484181,-1.07531 3.707784,-1.501717 1.223603,-0.426406 2.484104,-1.056778 4.134115,-1.205094 1.65001,-0.148315 3.689395,0.185463 5.246708,-0.129708 1.557311,-0.31517 2.632382,-1.278985 3.522265,-1.872237 0.354949,-0.236631 0.670594,-0.414683 0.960665,-0.596863 A 39.6875,39.6875 0 0 0 87.3125,47.625 39.6875,39.6875 0 0 0 87.179175,45.143498 c -0.23165,-0.02719 -0.488301,-0.03341 -0.770496,-0.01912 z" /><path
         style="opacity:1;fill:#112b00;stroke-width:3.34856"
         d="m 22.626324,62.582889 c -0.340837,-2.438297 -0.550579,-8.048873 -0.865204,-11.483532 -0.314625,-3.434658 -0.7341,-4.693083 -1.442005,-6.42352 -0.707906,-1.730436 -1.704159,-3.932679 -1.782815,-5.899085 -0.07866,-1.966406 0.76031,-3.696774 1.494426,-5.243663 0.734117,-1.546888 1.363342,-2.910209 2.254773,-2.857757 0.891431,0.05245 2.045009,1.520641 3.119966,3.198626 1.074957,1.677985 2.07121,3.565621 1.861459,5.820434 -0.20975,2.254813 -1.625505,4.876582 -2.385834,8.914242 -0.76033,4.037659 -0.865199,9.490834 -1.153605,12.584645 -0.288406,3.093811 -0.760324,3.827906 -1.101161,1.38961 z"
         id="path74"
         inkscape:path-effect="#path-effect82"
         inkscape:original-d="M 22.495233,65.755297 C 22.285487,60.144592 22.075746,54.534016 21.865995,48.9232 c -0.4195,-1.258501 -0.838975,-2.516926 -1.258474,-3.775426 -0.996312,-2.202373 -1.992565,-4.404616 -2.988877,-6.606991 0.839,-1.730437 1.677966,-3.460805 2.516949,-5.191208 0.62925,-1.363374 1.258475,-2.726695 1.887712,-4.09004 1.153625,1.46825 2.307203,2.936438 3.460805,4.404659 0.996312,1.887749 1.992565,3.775385 2.988877,5.663135 -1.415812,2.621876 -2.831568,5.243645 -4.247352,7.865468 -0.104875,5.453496 -0.209744,10.906671 -0.314619,16.360168 -0.471937,0.734125 -0.943855,1.46822 -1.415783,2.202332 z"
         transform="translate(0.94385593,0.15730932)"
         sodipodi:nodetypes="ccccccccccc" /><path
         style="opacity:1;fill:#112b00;stroke-width:3.34856"
         d="m 33.87394,76.950477 c -0.943856,-1.022512 -2.464512,-2.018803 -4.194934,-3.172419 -1.730423,-1.153615 -3.670532,-2.4645 -5.217419,-2.831549 -1.546886,-0.367049 -2.700465,0.20974 -3.041297,0.996296 -0.340832,0.786557 0.131087,1.782829 1.153613,2.805351 1.022527,1.022522 2.595588,2.07123 4.194915,3.119968 1.599327,1.048739 3.224825,2.097446 4.693058,2.464498 1.468234,0.367052 2.77912,0.05244 3.251044,-0.629243 0.471925,-0.681683 0.104877,-1.730391 -0.83898,-2.752902 z"
         id="path75"
         inkscape:path-effect="#path-effect84"
         inkscape:original-d="m 34.450742,76.924259 c -1.520658,-0.996294 -3.041314,-1.992585 -4.561972,-2.988879 -1.940187,-1.310936 -3.880296,-2.621822 -5.820444,-3.932732 -1.153625,0.576813 -2.307203,1.153602 -3.460805,1.730401 0.471937,0.996313 0.943856,1.992585 1.415784,2.988879 1.573125,1.04875 3.146186,2.097458 4.71928,3.146187 1.625561,1.048747 3.251058,2.097455 4.876589,3.146184 1.310936,-0.314624 2.621822,-0.629237 3.932732,-0.943856 -0.367062,-1.048747 -0.73411,-2.097455 -1.101164,-3.146184 z" /><path
         style="opacity:1;fill:#112b00;stroke-width:3.34856"
         d="m 71.680614,71.497086 c -0.943856,0.60302 -2.412076,2.07124 -4.430905,2.831569 -2.018829,0.760329 -4.588164,0.812764 -6.42345,1.284701 -1.835285,0.471937 -2.936428,1.363339 -3.434573,2.17611 -0.498145,0.812772 -0.393275,1.546867 0.943879,1.913922 1.337154,0.367055 3.906489,0.367055 6.449682,-0.445726 2.543193,-0.812781 5.06009,-2.438277 6.502096,-3.880291 1.442007,-1.442015 1.809055,-2.700466 1.782833,-3.460796 -0.02622,-0.760331 -0.445706,-1.022508 -1.389562,-0.419489 z"
         id="path76"
         inkscape:path-effect="#path-effect86"
         inkscape:original-d="m 72.204979,70.631885 c -1.468221,1.468221 -2.936441,2.936441 -4.404662,4.404662 -2.569437,0.05244 -5.138772,0.104873 -7.708156,0.157308 -1.101188,0.891437 -2.202331,1.782839 -3.303495,2.67426 0.104873,0.734123 0.209746,1.468218 0.314618,2.202328 2.569435,0 5.13877,0 7.708157,0 2.517,-1.62556 5.033896,-3.251057 7.550846,-4.876588 0.367064,-1.258499 0.73411,-2.51695 1.101166,-3.775424 -0.419499,-0.262187 -0.838983,-0.524365 -1.258474,-0.786546 z" /><path
         id="path77"
         style="opacity:1;fill:#806600;stroke-width:3.34856"
         d="M 47.625,7.9375 A 39.6875,39.6875 0 0 0 19.601904,19.664433 c 0.22156,0.06403 0.45063,0.120537 0.690914,0.156579 1.04874,0.157308 2.254909,-1.14e-4 3.198771,-0.419612 0.943862,-0.419498 1.625241,-1.101293 2.621546,-1.809192 0.996304,-0.707899 2.307541,-1.441678 3.434932,-2.018482 1.127391,-0.576804 2.071132,-0.996547 3.250965,-1.337386 1.179832,-0.340839 2.595595,-0.602771 3.565673,-0.943611 0.970078,-0.340841 1.494471,-0.760415 2.385901,-1.206128 0.891431,-0.445714 2.149848,-0.917455 3.460771,-1.153418 1.310923,-0.235964 2.673984,-0.236377 4.011125,-0.07906 1.33714,0.157312 2.648144,0.471922 3.985286,0.891418 1.337142,0.419497 2.700503,0.943838 4.168738,1.284676 1.468234,0.340838 3.041162,0.498384 4.430737,0.839226 1.389576,0.340841 2.595814,0.865407 3.906738,2.123901 1.310925,1.258494 2.726916,3.250642 4.4049,4.378027 1.677983,1.127385 3.617685,1.389531 5.269445,1.677934 1.651761,0.288404 3.015509,0.603039 4.1429,0.498161 0.548827,-0.05106 1.039518,-0.203676 1.295011,-0.65319 A 39.6875,39.6875 0 0 0 47.625,7.9375 Z" /><path
         style="opacity:1;fill:#806600;stroke-width:3.34856"
         d="m 75.849311,31.016153 c -0.917638,0.183528 -2.280984,1.179821 -3.618128,1.677967 -1.337143,0.498147 -2.648027,0.498147 -4.352232,0.681678 -1.704205,0.183531 -3.80162,0.550578 -4.850349,0.996293 -1.048729,0.445715 -1.048729,0.970069 -0.393261,1.284689 0.655468,0.31462 1.966354,0.41949 3.43459,0.314614 1.468237,-0.104876 3.093734,-0.419489 4.955248,-0.707891 1.861514,-0.288403 3.95893,-0.550579 5.112534,-1.074952 1.153604,-0.524373 1.363345,-1.310903 1.23225,-2.018801 -0.131095,-0.707899 -0.603014,-1.337125 -1.520652,-1.153597 z"
         id="path78"
         inkscape:path-effect="#path-effect88"
         inkscape:original-d="m 76.295021,30.203388 c -1.363347,0.996294 -2.726695,1.992585 -4.090042,2.988879 -1.310939,0 -2.621823,0 -3.932733,0 -2.0975,0.367062 -4.194915,0.73411 -6.292373,1.101164 0,0.524375 0,1.048729 0,1.573094 1.310936,0.104875 2.621822,0.209745 3.932732,0.314618 1.625563,-0.314624 3.25106,-0.629237 4.876588,-0.943856 2.0975,-0.262186 4.194916,-0.524364 6.292374,-0.786545 0.209751,-0.786564 0.419491,-1.573094 0.629237,-2.359642 -0.471937,-0.629248 -0.943856,-1.258474 -1.415783,-1.887712 z" /><path
         style="opacity:1;fill:#806600;stroke-width:3.34856"
         d="m 32.667902,34.686705 c -0.786547,-0.235964 -2.412076,-0.393273 -3.565685,-0.62924 -1.153608,-0.235968 -1.835267,-0.550579 -2.071229,-0.393263 -0.235963,0.157316 -0.02622,0.78654 0.655464,1.206034 0.681686,0.419493 1.835264,0.629235 2.857783,0.707889 1.022519,0.07865 1.913922,0.02622 2.38585,-0.157313 0.471928,-0.18353 0.524364,-0.498143 -0.262183,-0.734107 z"
         id="path79"
         inkscape:path-effect="#path-effect90"
         inkscape:original-d="m 33.506886,34.60805 c -1.625531,-0.157308 -3.25106,-0.314619 -4.876588,-0.471927 -0.681689,-0.314626 -1.363348,-0.629237 -2.045023,-0.943856 0.209751,0.629251 0.419491,1.258475 0.629237,1.887712 1.153626,0.209749 2.307204,0.419492 3.460806,0.629238 0.891436,-0.05244 1.782839,-0.104873 2.674257,-0.157311 0.05244,-0.314624 0.104873,-0.629237 0.157311,-0.943856 z" /><path
         sodipodi:type="star"
         style="opacity:1;fill:#eac840;fill-opacity:1;stroke-width:3.34856"
         id="path80"
         inkscape:flatsided="false"
         sodipodi:sides="10"
         sodipodi:cx="45.494904"
         sodipodi:cy="33.592815"
         sodipodi:r1="13.173658"
         sodipodi:r2="1.3173658"
         sodipodi:arg1="1.0471976"
         sodipodi:arg2="1.3613568"
         inkscape:rounded="0.1"
         inkscape:randomized="0"
         d="m 52.081732,45.001539 c -1.03297,0.596385 -5.146226,-10.368137 -6.312933,-10.120145 -1.166707,0.247991 -0.464681,11.937592 -1.650918,11.812913 -1.186238,-0.124679 1.930853,-11.412874 0.841202,-11.898018 -1.089652,-0.485144 -7.392676,9.384582 -8.279078,8.586462 -0.886402,-0.79812 8.270412,-8.098282 7.674026,-9.131253 -0.596385,-1.03297 -11.496919,3.246981 -11.74491,2.080274 -0.247991,-1.166707 11.450955,-1.690421 11.575633,-2.876659 0.124679,-1.186237 -11.20973,-4.130857 -10.724586,-5.220508 0.485144,-1.089651 10.257622,5.363123 11.055742,4.476721 0.79812,-0.886402 -6.640806,-9.930848 -5.607835,-10.527234 1.032971,-0.596386 5.146226,10.368136 6.312933,10.120145 1.166707,-0.247991 0.464681,-11.937592 1.650918,-11.812913 1.186238,0.124678 -1.930853,11.412874 -0.841202,11.898018 1.089652,0.485144 7.392676,-9.384582 8.279078,-8.586462 0.886402,0.79812 -8.270412,8.098282 -7.674026,9.131252 0.596386,1.032971 11.496919,-3.24698 11.74491,-2.080274 0.247991,1.166707 -11.450955,1.690422 -11.575633,2.87666 -0.124679,1.186237 11.20973,4.130856 10.724586,5.220508 -0.485144,1.089651 -10.257622,-5.363123 -11.055742,-4.476721 -0.79812,0.886402 6.640806,9.930848 5.607835,10.527234 z"
         transform="translate(1.6550598,1.4871635)" /><path
         style="opacity:1;fill:#ffe680;stroke-width:3.34856"
         d="m 42.289989,74.748145 c -2.123676,-0.812765 -4.902806,-2.385858 -6.633215,-3.487029 -1.730409,-1.101172 -2.412072,-1.730398 -1.337096,-2.438298 1.074975,-0.707899 3.906487,-1.49443 6.239928,-2.045016 2.33344,-0.550585 4.168677,-0.865197 5.269846,-1.1536 1.10117,-0.288403 1.468218,-0.55058 3.093776,-0.707889 1.625557,-0.15731 4.509505,-0.209746 7.236225,-0.31462 2.726721,-0.104875 5.296055,-0.26218 7.419748,-0.07865 2.123693,0.183533 3.801624,0.707886 2.779077,2.018818 -1.022546,1.310931 -4.745461,3.408347 -8.363611,5.060107 -3.618149,1.65176 -7.131321,2.857775 -9.622066,3.434575 -2.490745,0.5768 -3.958937,0.524364 -6.082612,-0.288401 z"
         id="path81"
         inkscape:path-effect="#path-effect92"
         inkscape:original-d="m 42.945444,75.508473 c -2.779131,-1.573093 -5.558261,-3.146186 -8.337394,-4.71928 -0.681686,-0.629248 -1.363348,-1.258475 -2.04502,-1.887712 2.831623,-0.786561 5.663136,-1.573091 8.494702,-2.359639 1.835314,-0.314624 3.670551,-0.629237 5.505828,-0.943856 0.367062,-0.262186 0.73411,-0.524364 1.101164,-0.786545 2.884061,-0.05244 5.768009,-0.104873 8.652012,-0.157311 2.569438,-0.15731 5.138772,-0.314618 7.708157,-0.471926 1.678001,0.524375 3.355932,1.048728 5.033899,1.573093 -3.723061,2.097497 -7.445976,4.194913 -11.168962,6.292371 -3.513312,1.206063 -7.026484,2.412077 -10.539725,3.618116 -1.468249,-0.05244 -2.936441,-0.104873 -4.404661,-0.157311 z" /></g></g></svg>
