<?xml version="1.0" encoding="UTF-8" standalone="no"?>
<!-- Created with Inkscape (http://www.inkscape.org/) -->

<svg
   width="360"
   height="80"
   viewBox="0 0 95.249998 21.166666"
   version="1.1"
   id="svg1"
   inkscape:version="1.3 (0e150ed, 2023-07-21)"
   sodipodi:docname="path2.svg"
   xmlns:inkscape="http://www.inkscape.org/namespaces/inkscape"
   xmlns:sodipodi="http://sodipodi.sourceforge.net/DTD/sodipodi-0.dtd"
   xmlns="http://www.w3.org/2000/svg"
   xmlns:svg="http://www.w3.org/2000/svg">
  <sodipodi:namedview
     id="namedview1"
     pagecolor="#ffffff"
     bordercolor="#000000"
     borderopacity="0.25"
     inkscape:showpageshadow="2"
     inkscape:pageopacity="0.0"
     inkscape:pagecheckerboard="0"
     inkscape:deskcolor="#d1d1d1"
     inkscape:document-units="mm"
     inkscape:zoom="0.5946522"
     inkscape:cx="438.0712"
     inkscape:cy="25.224829"
     inkscape:window-width="1928"
     inkscape:window-height="953"
     inkscape:window-x="128"
     inkscape:window-y="44"
     inkscape:window-maximized="0"
     inkscape:current-layer="layer1"
     showgrid="false" />
  <defs
     id="defs1" />
  <g
     inkscape:label="Layer 1"
     inkscape:groupmode="layer"
     id="layer1">
    <path
       id="path2"
       style="fill:#ffff66;fill-opacity:0.49821603;stroke-width:0.024514"
       d="M 66.069916 -1.7060934 C 63.767201 -1.7060934 61.464469 -1.5310099 61.114037 -1.1805774 C 60.413172 -0.47971259 60.413172 8.0305597 61.114037 8.7314246 C 61.814902 9.4322894 70.32493 9.4322894 71.025794 8.7314246 C 71.726659 8.0305597 71.726659 -0.4797126 71.025794 -1.1805774 C 70.675362 -1.5310099 68.372631 -1.7060934 66.069916 -1.7060934 z M 63.161469 0.64312814 C 63.18029 0.64312814 63.196193 0.67685491 63.209188 0.74407126 C 63.222631 0.80904705 63.229376 0.88856119 63.229376 0.98266407 C 63.229376 1.076767 63.222631 1.1574053 63.209188 1.2246217 C 63.196193 1.291838 63.18029 1.3252589 63.161469 1.3252589 C 63.142649 1.3252589 63.126521 1.291838 63.113078 1.2246217 C 63.099635 1.1574053 63.092889 1.076767 63.092889 0.98266407 C 63.092889 0.88856119 63.09941 0.80904705 63.112405 0.74407126 C 63.125848 0.67685491 63.142201 0.64312814 63.161469 0.64312814 z M 64.615356 0.64312814 C 64.634177 0.64312814 64.650079 0.67685491 64.663075 0.74407126 C 64.676518 0.80904705 64.683263 0.88856119 64.683263 0.98266407 C 64.683263 1.076767 64.676518 1.1574053 64.663075 1.2246217 C 64.650079 1.291838 64.634177 1.3252589 64.615356 1.3252589 C 64.596535 1.3252589 64.580408 1.291838 64.566965 1.2246217 C 64.553521 1.1574053 64.546776 1.076767 64.546776 0.98266407 C 64.546776 0.88856119 64.553296 0.80904705 64.566292 0.74407126 C 64.579735 0.67685491 64.596087 0.64312814 64.615356 0.64312814 z M 67.484159 0.64312814 C 67.50298 0.64312814 67.518883 0.67685491 67.531878 0.74407126 C 67.545321 0.80904705 67.552067 0.88856119 67.552067 0.98266407 C 67.552067 1.076767 67.545321 1.1574053 67.531878 1.2246217 C 67.518883 1.291838 67.50298 1.3252589 67.484159 1.3252589 C 67.465339 1.3252589 67.449211 1.291838 67.435768 1.2246217 C 67.422325 1.1574053 67.415579 1.076767 67.415579 0.98266407 C 67.415579 0.88856119 67.4221 0.80904705 67.435095 0.74407126 C 67.448538 0.67685491 67.464891 0.64312814 67.484159 0.64312814 z M 61.760685 0.8648971 L 62.018793 0.8648971 L 62.349458 4.4306361 L 62.674801 0.8648971 L 62.93291 0.8648971 L 62.93291 0.98939361 L 62.901342 0.98939361 C 62.862356 0.98939361 62.834762 1.0475475 62.81863 1.1640558 C 62.808771 1.2357532 62.803886 1.3992784 62.803886 1.6547005 L 62.803886 4.6325224 C 62.803886 4.9125905 62.81012 5.0873579 62.822668 5.1568148 C 62.839248 5.2509177 62.865493 5.2978292 62.901342 5.2978292 L 62.93291 5.2978292 L 62.93291 5.4223258 L 62.545777 5.4223258 L 62.545777 5.2978292 L 62.578018 5.2978292 C 62.617004 5.2978292 62.644374 5.2396754 62.660057 5.1231671 C 62.669916 5.0514696 62.674801 4.8879445 62.674801 4.6325224 L 62.674801 1.5874051 L 62.323274 5.4223258 L 62.301067 5.4223258 L 61.948867 1.5874051 L 61.948867 4.6325224 C 61.948867 4.9125905 61.954938 5.0873579 61.967037 5.1568148 C 61.983617 5.2509177 62.009802 5.2978292 62.04565 5.2978292 L 62.077952 5.2978292 L 62.077952 5.4223258 L 61.760685 5.4223258 L 61.760685 5.2978292 L 61.792925 5.2978292 C 61.831463 5.2978292 61.858833 5.2396754 61.874965 5.1231671 C 61.884823 5.0514696 61.889708 4.8879445 61.889708 4.6325224 L 61.889708 1.6547005 C 61.889708 1.4530515 61.885273 1.3075139 61.876311 1.2178921 C 61.870037 1.1529163 61.858345 1.0989535 61.841317 1.0563831 C 61.824737 1.0115722 61.797878 0.98939361 61.760685 0.98939361 L 61.760685 0.8648971 z M 66.541779 0.8648971 L 66.87587 0.8648971 C 66.957426 0.8648971 67.021712 0.90761768 67.068763 0.99275838 C 67.115815 1.0756585 67.15549 1.2166992 67.187754 1.4161077 C 67.220018 1.6155162 67.236145 1.8518101 67.236145 2.1251566 C 67.236145 2.497087 67.211473 2.7997103 67.162181 3.0327269 C 67.113338 3.2657436 67.044105 3.3823572 66.954483 3.3823572 C 66.932526 3.3823572 66.908754 3.3744876 66.883211 3.3588038 C 66.857669 3.34312 66.83036 3.3195112 66.801233 3.2881436 L 66.801233 4.6156985 C 66.801233 4.9024882 66.807529 5.0806283 66.820076 5.1500852 C 66.837104 5.2486692 66.862839 5.2978292 66.897343 5.2978292 L 66.932276 5.2978292 L 66.932276 5.4223258 L 66.541779 5.4223258 L 66.541779 5.2978292 L 66.576038 5.2978292 C 66.614576 5.2978292 66.642171 5.2351785 66.658751 5.109708 C 66.667713 5.0402511 66.672148 4.8756017 66.672148 4.6156985 L 66.672148 1.6715244 C 66.672148 1.3847346 66.666139 1.2065945 66.65404 1.1371376 C 66.636564 1.0385537 66.610543 0.98939361 66.576038 0.98939361 L 66.541779 0.98939361 L 66.541779 0.8648971 z M 66.889268 1.1371376 C 66.866414 1.1371376 66.837082 1.1584979 66.801233 1.2010683 L 66.801233 3.0966576 C 66.824983 3.119063 66.846057 3.1356205 66.86443 3.1468233 C 66.882802 3.158026 66.89848 3.1636471 66.911475 3.1636471 C 66.958079 3.1636471 66.998204 3.0740149 67.031812 2.8947714 C 67.065868 2.7132872 67.082895 2.4792417 67.082895 2.192452 C 67.082895 1.9952841 67.074801 1.812647 67.058669 1.6446062 C 67.042537 1.4743248 67.019664 1.3478991 66.990089 1.2649989 C 66.960514 1.1798582 66.926909 1.1371376 66.889268 1.1371376 z M 68.478969 1.3319884 L 68.499769 1.3319884 L 68.499769 2.3438667 L 68.643659 2.3438667 L 68.643659 2.5790947 L 68.499769 2.5790947 L 68.499769 4.5753213 C 68.499769 4.7747297 68.505391 4.9090251 68.516593 4.9784819 C 68.528244 5.0479388 68.543023 5.0827898 68.560947 5.0827898 C 68.575735 5.0827898 68.590064 5.0603053 68.603955 5.0154944 C 68.617846 4.968443 68.628639 4.9001711 68.636257 4.8105493 L 68.662441 4.8105493 C 68.646757 5.0301227 68.624559 5.1958963 68.59588 5.3079236 C 68.567201 5.4177102 68.537643 5.4724914 68.507172 5.4724914 C 68.486559 5.4724914 68.466384 5.4446917 68.446667 5.388678 C 68.42695 5.3304239 68.412397 5.2486613 68.402986 5.1433557 C 68.393576 5.0358095 68.388854 4.8711601 68.388854 4.6493462 L 68.388854 2.5790947 L 68.291398 2.5790947 L 68.291398 2.4680573 C 68.316044 2.4187653 68.341166 2.3358785 68.366708 2.2193702 C 68.392698 2.1006213 68.415796 1.9607049 68.435961 1.7993856 C 68.446268 1.7142449 68.460597 1.5582834 68.478969 1.3319884 z M 70.142573 2.2496531 C 70.211582 2.2496531 70.268223 2.3640182 70.312585 2.5925538 C 70.356948 2.8188488 70.379147 3.1222904 70.379147 3.503183 L 69.953656 3.503183 C 69.953208 3.9602542 69.975407 4.3187828 70.020217 4.578686 C 70.065028 4.8385892 70.117683 4.9683876 70.178178 4.9683876 C 70.218508 4.9683876 70.253461 4.9136065 70.283037 4.8038198 C 70.31306 4.6917925 70.338181 4.5012859 70.358346 4.2324206 L 70.379147 4.299716 C 70.369736 4.6066706 70.342428 4.8868094 70.297169 5.1399909 C 70.25191 5.3909319 70.195207 5.5162334 70.127095 5.5162334 C 70.053157 5.5162334 69.98977 5.3729443 69.936894 5.0861546 C 69.884465 4.7971243 69.858219 4.4093658 69.858219 3.9231676 C 69.858219 3.3966396 69.885139 2.9867024 69.938912 2.693191 C 69.993134 2.3974391 70.061017 2.2496531 70.142573 2.2496531 z M 63.187653 2.2530179 L 63.217263 2.2530179 L 63.217263 4.72643 C 63.217263 4.9191169 63.219961 5.048097 63.225339 5.1130728 C 63.231164 5.175808 63.239422 5.2227196 63.250177 5.2540872 C 63.26138 5.2854549 63.281554 5.301194 63.310682 5.301194 L 63.310682 5.4223258 L 63.011584 5.4223258 L 63.011584 5.301194 C 63.041607 5.301194 63.061782 5.2865791 63.072089 5.257452 C 63.082395 5.2283249 63.090429 5.1802891 63.096254 5.1130728 C 63.102527 5.0458564 63.105675 4.9168763 63.105675 4.72643 L 63.105675 3.5401955 C 63.105675 3.2063543 63.103652 2.9899906 63.099619 2.8914066 C 63.096482 2.8197092 63.091535 2.7705491 63.084814 2.7436626 C 63.078092 2.7145355 63.068935 2.6999206 63.057284 2.6999206 C 63.044737 2.6999206 63.029508 2.7167839 63.011584 2.7503921 L 63.002163 2.6292604 L 63.187653 2.2530179 z M 63.598339 2.2530179 C 63.622537 2.2530179 63.65193 2.2788751 63.686435 2.3304076 C 63.709288 2.3640158 63.724517 2.3805733 63.732134 2.3805733 C 63.739304 2.3805733 63.744925 2.3727037 63.748958 2.3570199 C 63.752991 2.341336 63.757652 2.3067909 63.763029 2.2530179 L 63.785237 2.2530179 L 63.785237 3.3016027 L 63.763029 3.3016027 C 63.746001 2.9722426 63.724088 2.7480093 63.697202 2.6292604 C 63.670764 2.5105115 63.636934 2.4512334 63.595708 2.4512334 C 63.564341 2.4512334 63.538994 2.4928298 63.519726 2.5757299 C 63.500457 2.6586301 63.49085 2.7505107 63.49085 2.8513352 C 63.49085 2.9768057 63.497984 3.0841196 63.512323 3.1737414 C 63.526214 3.2656038 63.554484 3.3631055 63.597054 3.4661706 L 63.695183 3.7047634 C 63.786149 3.9265773 63.831609 4.2190826 63.831609 4.5820508 C 63.831609 4.8621189 63.81031 5.0882948 63.76774 5.2608168 C 63.725618 5.4310982 63.678359 5.5162334 63.62593 5.5162334 C 63.588289 5.5162334 63.545241 5.4828126 63.496845 5.4155962 C 63.482058 5.3931908 63.469977 5.3819485 63.460567 5.3819485 C 63.45026 5.3819485 63.442227 5.4108725 63.436402 5.4691266 L 63.414194 5.4691266 L 63.414194 4.3703761 L 63.436402 4.3703761 C 63.448949 4.6840524 63.472885 4.9203464 63.508285 5.0794251 C 63.543686 5.2385037 63.583361 5.3180179 63.627276 5.3180179 C 63.658195 5.3180179 63.683256 5.2733547 63.702524 5.1837329 C 63.722241 5.0918706 63.732134 4.9820024 63.732134 4.8542913 C 63.732134 4.6996937 63.721178 4.5695894 63.699221 4.4642838 C 63.677712 4.3589782 63.634439 4.2258071 63.569463 4.0644879 C 63.504487 3.9031687 63.461889 3.7576311 63.441724 3.6276795 C 63.421559 3.4999685 63.411502 3.3383859 63.411502 3.1434585 C 63.411502 2.8902769 63.428754 2.6787159 63.463259 2.5084345 C 63.498211 2.3381531 63.543221 2.2530179 63.598339 2.2530179 z M 64.134072 2.2530179 C 64.158269 2.2530179 64.187663 2.2788751 64.222167 2.3304076 C 64.245021 2.3640158 64.260249 2.3805733 64.267867 2.3805733 C 64.275037 2.3805733 64.280597 2.3727037 64.28463 2.3570199 C 64.288663 2.341336 64.293384 2.3067909 64.298762 2.2530179 L 64.320969 2.2530179 L 64.320969 3.3016027 L 64.298762 3.3016027 C 64.281734 2.9722426 64.25976 2.7480093 64.232873 2.6292604 C 64.206435 2.5105115 64.172606 2.4512334 64.13138 2.4512334 C 64.100012 2.4512334 64.074727 2.4928298 64.055458 2.5757299 C 64.03619 2.6586301 64.026521 2.7505107 64.026521 2.8513352 C 64.026521 2.9768057 64.033716 3.0841196 64.048056 3.1737414 C 64.061947 3.2656038 64.090155 3.3631055 64.132726 3.4661706 L 64.230855 3.7047634 C 64.321821 3.9265773 64.367342 4.2190826 64.367342 4.5820508 C 64.367342 4.8621189 64.346043 5.0882948 64.303472 5.2608168 C 64.26135 5.4310982 64.214091 5.5162334 64.161663 5.5162334 C 64.124021 5.5162334 64.080974 5.4828126 64.032578 5.4155962 C 64.01779 5.3931908 64.00571 5.3819485 63.996299 5.3819485 C 63.985993 5.3819485 63.977899 5.4108725 63.972073 5.4691266 L 63.949927 5.4691266 L 63.949927 4.3703761 L 63.972073 4.3703761 C 63.98462 4.6840524 64.008617 4.9203464 64.044018 5.0794251 C 64.079419 5.2385037 64.119094 5.3180179 64.163009 5.3180179 C 64.193928 5.3180179 64.218988 5.2733547 64.238257 5.1837329 C 64.257974 5.0918706 64.267867 4.9820024 64.267867 4.8542913 C 64.267867 4.6996937 64.25685 4.5695894 64.234892 4.4642838 C 64.213383 4.3589782 64.170171 4.2258071 64.105196 4.0644879 C 64.04022 3.9031687 63.997622 3.7576311 63.977457 3.6276795 C 63.957292 3.4999685 63.947235 3.3383859 63.947235 3.1434585 C 63.947235 2.8902769 63.964487 2.6787159 63.998991 2.5084345 C 64.033944 2.3381531 64.078954 2.2530179 64.134072 2.2530179 z M 64.64154 2.2530179 L 64.67115 2.2530179 L 64.67115 4.72643 C 64.67115 4.9191169 64.673848 5.048097 64.679226 5.1130728 C 64.685051 5.175808 64.693309 5.2227196 64.704064 5.2540872 C 64.715266 5.2854549 64.735441 5.301194 64.764568 5.301194 L 64.764568 5.4223258 L 64.465471 5.4223258 L 64.465471 5.301194 C 64.495494 5.301194 64.515669 5.2865791 64.525976 5.257452 C 64.536282 5.2283249 64.544315 5.1802891 64.550141 5.1130728 C 64.556414 5.0458564 64.559562 4.9168763 64.559562 4.72643 L 64.559562 3.5401955 C 64.559562 3.2063543 64.557538 2.9899906 64.553505 2.8914066 C 64.550369 2.8197092 64.545422 2.7705491 64.5387 2.7436626 C 64.531979 2.7145355 64.522821 2.6999206 64.511171 2.6999206 C 64.498623 2.6999206 64.483395 2.7167839 64.465471 2.7503921 L 64.456049 2.6292604 L 64.64154 2.2530179 z M 64.991782 2.2530179 L 65.020658 2.2530179 L 65.020658 2.9048657 C 65.092803 2.4702 65.161586 2.2530179 65.22701 2.2530179 C 65.260618 2.2530179 65.289562 2.2954326 65.31376 2.3805733 C 65.337958 2.4634734 65.357172 2.6014473 65.371512 2.7941341 C 65.38137 2.9285668 65.386317 3.1345067 65.386317 3.4123342 L 65.386317 4.72643 C 65.386317 4.9213574 65.389465 5.0537102 65.395738 5.1231671 C 65.400667 5.1791807 65.408537 5.2227196 65.419291 5.2540872 C 65.430494 5.2854549 65.450833 5.301194 65.480408 5.301194 L 65.480408 5.4223258 L 65.175927 5.4223258 L 65.175927 5.301194 L 65.188713 5.301194 C 65.217392 5.301194 65.237342 5.2798337 65.248545 5.2372634 C 65.260196 5.1924525 65.268229 5.1275533 65.27271 5.0424126 C 65.274502 5.0088044 65.275402 4.9034331 65.275402 4.72643 L 65.275402 3.4661706 C 65.275402 3.1861025 65.268043 2.9835353 65.253255 2.8580648 C 65.238916 2.7303537 65.214469 2.6662729 65.179965 2.6662729 C 65.12664 2.6662729 65.073535 2.8121163 65.020658 3.1033871 L 65.020658 4.72643 C 65.020658 4.9348007 65.023131 5.0637808 65.02806 5.1130728 C 65.034334 5.1780486 65.042878 5.2260844 65.053633 5.257452 C 65.064835 5.2865791 65.087198 5.301194 65.120806 5.301194 L 65.120806 5.4223258 L 64.816325 5.4223258 L 64.816325 5.301194 L 64.829784 5.301194 C 64.861151 5.301194 64.882226 5.262152 64.89298 5.1837329 C 64.904183 5.1030733 64.909743 4.9504845 64.909743 4.72643 L 64.909743 3.5839375 C 64.909743 3.2142476 64.907944 2.9888901 64.904359 2.9082304 C 64.901222 2.8275708 64.896112 2.7727897 64.888942 2.7436626 C 64.882221 2.7145355 64.873002 2.6999206 64.861351 2.6999206 C 64.848804 2.6999206 64.833801 2.7167839 64.816325 2.7503921 L 64.80623 2.6292604 L 64.991782 2.2530179 z M 65.822575 2.2530179 C 65.881277 2.2530179 65.932133 2.3246624 65.975152 2.4680573 L 66.105521 2.4680573 C 66.12479 2.4680573 66.136032 2.47143 66.139169 2.4781516 C 66.142306 2.4826327 66.144554 2.4916265 66.145898 2.5050698 C 66.148587 2.5252347 66.149875 2.560904 66.149875 2.6124365 C 66.149875 2.6706907 66.148812 2.7111628 66.146571 2.7335683 C 66.145227 2.744771 66.142754 2.7537648 66.139169 2.7604864 C 66.136032 2.7672081 66.12479 2.7705807 66.105521 2.7705807 L 66.025562 2.7705807 C 66.050656 2.9319 66.063186 3.1378398 66.063186 3.3887808 C 66.063186 3.6755706 66.041213 3.9211642 65.997298 4.1250538 C 65.953383 4.3289434 65.894494 4.4306361 65.820556 4.4306361 C 65.790084 4.4306361 65.758953 4.4084575 65.727137 4.3636466 C 65.707421 4.4487873 65.69393 4.5238045 65.68676 4.5887803 C 65.680039 4.6515156 65.676727 4.7051725 65.676727 4.7499834 C 65.676727 4.7880727 65.680263 4.8251721 65.687433 4.8610209 C 65.695051 4.8968696 65.709666 4.9227268 65.731175 4.9384106 C 65.743722 4.9473728 65.775078 4.9549365 65.825266 4.9616581 C 65.917577 4.9728608 65.977366 4.9886 66.0047 5.0087649 C 66.046375 5.037892 66.079529 5.1151576 66.104175 5.2406281 C 66.129269 5.3660987 66.141861 5.5209359 66.141861 5.7046606 C 66.141861 5.9578421 66.118088 6.1952603 66.070589 6.4170743 C 66.000684 6.7441938 65.909478 6.907719 65.797002 6.907719 C 65.710517 6.907719 65.637462 6.8102172 65.577864 6.6152898 C 65.544256 6.5032626 65.527454 6.386649 65.527454 6.2656596 C 65.527454 6.2118865 65.529927 6.1582296 65.534856 6.1044565 C 65.542474 6.0215563 65.558152 5.906067 65.581902 5.758191 C 65.585038 5.7380261 65.607911 5.6172215 65.650482 5.3954076 C 65.62718 5.3259507 65.610603 5.2641183 65.600744 5.2103452 C 65.591334 5.1543316 65.586612 5.0916808 65.586612 5.022224 C 65.586612 4.9438049 65.592908 4.8519243 65.605455 4.7466187 C 65.61845 4.6413131 65.648007 4.4924028 65.694163 4.299716 C 65.656521 4.2078536 65.627639 4.0799978 65.607474 3.916438 C 65.587309 3.7506377 65.577191 3.5683066 65.577191 3.3688981 C 65.577191 3.064184 65.600064 2.8020329 65.645771 2.5824595 C 65.691926 2.3628861 65.750877 2.2530179 65.822575 2.2530179 z M 67.510343 2.2530179 L 67.539953 2.2530179 L 67.539953 4.72643 C 67.539953 4.9191169 67.542652 5.048097 67.548029 5.1130728 C 67.553854 5.175808 67.562112 5.2227196 67.572867 5.2540872 C 67.58407 5.2854549 67.604245 5.301194 67.633372 5.301194 L 67.633372 5.4223258 L 67.334274 5.4223258 L 67.334274 5.301194 C 67.364297 5.301194 67.384472 5.2865791 67.394779 5.257452 C 67.405085 5.2283249 67.413119 5.1802891 67.418944 5.1130728 C 67.425218 5.0458564 67.428365 4.9168763 67.428365 4.72643 L 67.428365 3.5401955 C 67.428365 3.2063543 67.426342 2.9899906 67.422309 2.8914066 C 67.419172 2.8197092 67.414225 2.7705491 67.407504 2.7436626 C 67.400782 2.7145355 67.391625 2.6999206 67.379974 2.6999206 C 67.367427 2.6999206 67.352199 2.7167839 67.334274 2.7503921 L 67.324853 2.6292604 L 67.510343 2.2530179 z M 68.007779 2.2530179 C 68.068274 2.2530179 68.118006 2.3336562 68.156991 2.4949754 C 68.195977 2.6540541 68.215477 2.8198278 68.215477 2.9923497 C 68.215477 3.0774904 68.209856 3.1468865 68.198653 3.2006596 C 68.187898 3.2521921 68.17267 3.2780493 68.152953 3.2780493 C 68.126515 3.2780493 68.106565 3.2353287 68.093122 3.150188 C 68.085504 3.1031366 68.080332 3.0135044 68.077644 2.8813123 C 68.075403 2.7491201 68.066471 2.6485516 68.050787 2.5790947 C 68.035103 2.5118784 68.013354 2.4781516 67.985571 2.4781516 C 67.94076 2.4781516 67.904683 2.5610384 67.877348 2.7268387 C 67.841051 2.9464121 67.8229 3.2366689 67.8229 3.5973966 C 67.8229 3.9648459 67.840826 4.2896479 67.876675 4.5719565 C 67.912972 4.8520246 67.961805 4.991941 68.023196 4.991941 C 68.06711 4.991941 68.106561 4.9169238 68.141513 4.7668073 C 68.166159 4.6637422 68.190156 4.4766083 68.213458 4.2055024 L 68.232913 4.2526092 C 68.216333 4.6581478 68.183852 4.9708891 68.135457 5.1904625 C 68.087061 5.4077953 68.033506 5.5162334 67.974804 5.5162334 C 67.904899 5.5162334 67.843986 5.3695716 67.792005 5.0760603 C 67.740025 4.7825489 67.714004 4.3861025 67.714004 3.886461 C 67.714004 3.4025033 67.742723 3.0091236 67.800081 2.7066501 C 67.857887 2.4041766 67.927119 2.2530179 68.007779 2.2530179 z M 69.543644 2.2530179 L 69.571908 2.2530179 L 69.571908 2.9452429 C 69.62344 2.4836907 69.67632 2.2530179 69.730541 2.2530179 C 69.755187 2.2530179 69.775526 2.2909357 69.791658 2.3671142 C 69.80779 2.4410521 69.815884 2.5273116 69.815884 2.6258956 C 69.815884 2.7132769 69.810038 2.7874758 69.798387 2.8479705 C 69.786737 2.9084652 69.772857 2.9385134 69.756725 2.9385134 C 69.741042 2.9385134 69.72334 2.9005956 69.703623 2.8244171 C 69.684354 2.745998 69.670026 2.7066501 69.660615 2.7066501 C 69.652549 2.7066501 69.643842 2.7291346 69.634431 2.7739455 C 69.614266 2.8658078 69.593417 3.0169665 69.571908 3.2275777 L 69.571908 4.7028766 C 69.571908 4.873158 69.576119 5.0021381 69.584633 5.0895194 C 69.590458 5.1500141 69.600801 5.2002983 69.615589 5.2406281 C 69.630376 5.280958 69.651675 5.301194 69.679458 5.301194 L 69.679458 5.4223258 L 69.36421 5.4223258 L 69.36421 5.301194 C 69.395577 5.301194 69.418839 5.276461 69.434074 5.2271691 C 69.445277 5.1913203 69.453147 5.1342907 69.457628 5.0558717 C 69.459868 5.0177824 69.460993 4.9090384 69.460993 4.7297948 L 69.460993 3.5368307 C 69.460993 3.1783436 69.459419 2.9653525 69.456282 2.8981361 C 69.453593 2.8286792 69.448197 2.778395 69.440131 2.7470273 C 69.432513 2.7156597 69.422906 2.6999206 69.411255 2.6999206 C 69.397364 2.6999206 69.381686 2.7167839 69.36421 2.7503921 L 69.35748 2.6292604 L 69.543644 2.2530179 z M 68.661768 2.3438667 L 68.877541 2.3438667 L 68.877541 4.4040239 C 68.877541 4.6908136 68.887373 4.8787658 68.90709 4.9683876 C 68.927255 5.0580094 68.951477 5.1029784 68.979708 5.1029784 C 68.998977 5.1029784 69.020726 5.0726244 69.044923 5.0121296 C 69.069569 4.9516349 69.098677 4.8364515 69.132285 4.6661701 L 69.132285 2.9216895 C 69.132285 2.746927 69.125826 2.6294951 69.112831 2.5690004 C 69.100284 2.5062651 69.073813 2.4725384 69.033483 2.4680573 L 69.033483 2.3438667 L 69.2432 2.3438667 L 69.2432 4.2088672 C 69.2432 4.5651138 69.244774 4.783726 69.247911 4.8643856 C 69.251496 4.9428047 69.256892 4.9975859 69.264062 5.0289535 C 69.27168 5.0603211 69.280387 5.0760603 69.290246 5.0760603 C 69.304137 5.0760603 69.319815 5.0569484 69.337291 5.0188592 L 69.346713 5.1366262 L 69.162568 5.5162334 L 69.132285 5.5162334 L 69.132285 4.8643856 C 69.079408 5.1511754 69.039059 5.3315639 69.011276 5.4055019 C 68.983493 5.4794399 68.954161 5.5162334 68.923241 5.5162334 C 68.888737 5.5162334 68.85873 5.4670734 68.833188 5.3684894 C 68.808094 5.2676649 68.790617 5.1386848 68.780758 4.9818467 C 68.7709 4.8250086 68.765953 4.6033296 68.765953 4.3165398 L 68.765953 2.9418781 C 68.765953 2.7962427 68.762806 2.6953683 68.756532 2.6393547 C 68.750259 2.5833411 68.740876 2.5409264 68.728329 2.5117993 C 68.71623 2.4804317 68.694032 2.4658167 68.661768 2.4680573 L 68.661768 2.3438667 z M 65.811134 2.414221 C 65.777974 2.414221 65.750216 2.4802444 65.72781 2.6124365 C 65.705405 2.7446287 65.694163 2.9475017 65.694163 3.2208482 C 65.694163 3.5748543 65.709391 3.8493719 65.739862 4.0442993 C 65.763164 4.1921753 65.792782 4.2660683 65.828631 4.2660683 C 65.862687 4.2660683 65.890671 4.2022933 65.912628 4.0745822 C 65.934585 3.9468712 65.945542 3.7462466 65.945542 3.4729001 C 65.945542 3.1166535 65.930088 2.8376389 65.899169 2.6359899 C 65.876315 2.488114 65.846983 2.414221 65.811134 2.414221 z M 70.104887 2.4882459 C 70.067694 2.4882459 70.034315 2.5610147 70.00474 2.7066501 C 69.975612 2.850045 69.958585 3.0506696 69.953656 3.3083322 L 70.238683 3.3083322 C 70.236442 3.1111643 70.231721 2.9720662 70.224551 2.8914066 C 70.213348 2.7659361 70.196546 2.667616 70.17414 2.5959186 C 70.152183 2.5242211 70.129085 2.4882459 70.104887 2.4882459 z M 65.687433 5.4223258 C 65.666372 5.5365935 65.650469 5.6427832 65.639715 5.7413672 C 65.62896 5.8399511 65.623625 5.9307075 65.623625 6.0136077 C 65.623625 6.1211538 65.636605 6.2152829 65.662595 6.2959425 C 65.707406 6.4348563 65.772141 6.5045583 65.856834 6.5045583 C 65.937494 6.5045583 65.996894 6.4326078 66.034983 6.289213 C 66.073521 6.1480587 66.092796 5.9969 66.092796 5.8355807 C 66.092796 5.7190724 66.081329 5.6361856 66.058476 5.5868936 C 66.035174 5.5376016 65.989039 5.5083718 65.920031 5.4994096 C 65.819206 5.4859663 65.741654 5.460415 65.687433 5.4223258 z "
       transform="matrix(8.4469469,0,0,1.6893894,-510.46407,4.2051728)" />
  </g>
</svg>
