<?xml version="1.0" encoding="UTF-8" standalone="no"?>
<!-- Created with Inkscape (http://www.inkscape.org/) -->

<svg
   width="360"
   height="360"
   viewBox="0 0 95.249998 95.249999"
   version="1.1"
   id="svg1"
   inkscape:version="1.3 (0e150ed, 2023-07-21)"
   sodipodi:docname="Defferent.svg"
   xml:space="preserve"
   xmlns:inkscape="http://www.inkscape.org/namespaces/inkscape"
   xmlns:sodipodi="http://sodipodi.sourceforge.net/DTD/sodipodi-0.dtd"
   xmlns="http://www.w3.org/2000/svg"
   xmlns:svg="http://www.w3.org/2000/svg"><sodipodi:namedview
     id="namedview1"
     pagecolor="#ffffff"
     bordercolor="#000000"
     borderopacity="0.25"
     inkscape:showpageshadow="2"
     inkscape:pageopacity="0.0"
     inkscape:pagecheckerboard="0"
     inkscape:deskcolor="#d1d1d1"
     inkscape:document-units="mm"
     inkscape:zoom="3.3638608"
     inkscape:cx="164.2458"
     inkscape:cy="251.49673"
     inkscape:window-width="1928"
     inkscape:window-height="953"
     inkscape:window-x="283"
     inkscape:window-y="44"
     inkscape:window-maximized="0"
     inkscape:current-layer="layer1"
     showgrid="false"
     showguides="false" /><defs
     id="defs1"><inkscape:path-effect
       effect="bspline"
       id="path-effect17"
       is_visible="true"
       lpeversion="1.3"
       weight="33.333333"
       steps="2"
       helper_size="0"
       apply_no_weight="true"
       apply_with_weight="true"
       only_selected="false"
       uniform="false" /><inkscape:path-effect
       effect="bspline"
       id="path-effect5"
       is_visible="true"
       lpeversion="1.3"
       weight="33.333333"
       steps="2"
       helper_size="0"
       apply_no_weight="true"
       apply_with_weight="true"
       only_selected="false"
       uniform="false" /><inkscape:path-effect
       effect="bspline"
       id="path-effect3"
       is_visible="true"
       lpeversion="1.3"
       weight="33.333333"
       steps="2"
       helper_size="0"
       apply_no_weight="true"
       apply_with_weight="true"
       only_selected="false"
       uniform="false" /><inkscape:path-effect
       effect="bspline"
       id="path-effect15"
       is_visible="true"
       lpeversion="1.3"
       weight="33.333333"
       steps="2"
       helper_size="0"
       apply_no_weight="true"
       apply_with_weight="true"
       only_selected="false"
       uniform="false" /><inkscape:path-effect
       effect="bspline"
       id="path-effect14"
       is_visible="true"
       lpeversion="1.3"
       weight="33.333333"
       steps="2"
       helper_size="0"
       apply_no_weight="true"
       apply_with_weight="true"
       only_selected="false"
       uniform="false" /><inkscape:path-effect
       effect="bspline"
       id="path-effect13"
       is_visible="true"
       lpeversion="1.3"
       weight="33.333333"
       steps="2"
       helper_size="0"
       apply_no_weight="true"
       apply_with_weight="true"
       only_selected="false"
       uniform="false" /><inkscape:path-effect
       effect="bspline"
       id="path-effect12"
       is_visible="true"
       lpeversion="1.3"
       weight="33.333333"
       steps="2"
       helper_size="0"
       apply_no_weight="true"
       apply_with_weight="true"
       only_selected="false"
       uniform="false" /><inkscape:path-effect
       effect="bspline"
       id="path-effect11"
       is_visible="true"
       lpeversion="1.3"
       weight="33.333333"
       steps="2"
       helper_size="0"
       apply_no_weight="true"
       apply_with_weight="true"
       only_selected="false"
       uniform="false" /><inkscape:path-effect
       effect="bspline"
       id="path-effect10"
       is_visible="true"
       lpeversion="1.3"
       weight="33.333333"
       steps="2"
       helper_size="0"
       apply_no_weight="true"
       apply_with_weight="true"
       only_selected="false"
       uniform="false" /><inkscape:path-effect
       effect="bspline"
       id="path-effect9"
       is_visible="true"
       lpeversion="1.3"
       weight="33.333333"
       steps="2"
       helper_size="0"
       apply_no_weight="true"
       apply_with_weight="true"
       only_selected="false"
       uniform="false" /><inkscape:path-effect
       effect="bspline"
       id="path-effect8"
       is_visible="true"
       lpeversion="1.3"
       weight="33.333333"
       steps="2"
       helper_size="0"
       apply_no_weight="true"
       apply_with_weight="true"
       only_selected="false"
       uniform="false" /><inkscape:path-effect
       effect="bspline"
       id="path-effect7"
       is_visible="true"
       lpeversion="1.3"
       weight="33.333333"
       steps="2"
       helper_size="0"
       apply_no_weight="true"
       apply_with_weight="true"
       only_selected="false"
       uniform="false" /><inkscape:path-effect
       effect="bspline"
       id="path-effect6"
       is_visible="true"
       lpeversion="1.3"
       weight="33.333333"
       steps="2"
       helper_size="0"
       apply_no_weight="true"
       apply_with_weight="true"
       only_selected="false"
       uniform="false" /></defs><g
     inkscape:label="Layer 1"
     inkscape:groupmode="layer"
     id="layer1"
     style="display:inline;opacity:1"><circle
       style="opacity:1;fill:#2b1100;stroke-width:0.0926042"
       id="path1"
       cx="47.625"
       cy="47.625"
       r="47.625"
       sodipodi:insensitive="true" /><circle
       style="opacity:1;fill:#784421;stroke-width:0.0926042"
       id="circle1"
       cx="47.625"
       cy="47.625"
       r="46.302082"
       sodipodi:insensitive="true" /><circle
       style="opacity:1;fill:#c87137;stroke-width:0.0926042"
       id="circle2"
       cx="47.625"
       cy="47.625"
       r="44.979168"
       sodipodi:insensitive="true" /><circle
       style="opacity:1;fill:#deaa87;stroke-width:0.0926042"
       id="circle3"
       cx="47.625"
       cy="47.625"
       r="43.65625"
       sodipodi:insensitive="true" /><circle
       style="opacity:1;fill:#502d16;stroke-width:0.0926042"
       id="circle4"
       cx="47.625"
       cy="47.625"
       r="42.333332"
       sodipodi:insensitive="true" /><circle
       style="opacity:1;fill:#d4aa00;stroke-width:0.0926042"
       id="InnerCircle"
       cx="47.625"
       cy="47.625"
       r="39.6875" /><circle
       style="opacity:0.5;fill:#ffe680;stroke-width:0.0926042"
       id="path5"
       cx="47.149963"
       cy="35.079979"
       r="6.2923727" /><path
       id="path6"
       style="opacity:1;fill:#165016;stroke-width:0.0926042"
       d="m 85.356547,39.1604 c -1.222406,-0.02295 -2.742867,0.415849 -4.60437,1.031979 -3.723006,1.232261 -8.80929,3.172411 -14.367599,5.453414 -5.558307,2.281002 -11.588151,4.902821 -15.704467,5.951574 C 46.563795,52.64612 44.361442,52.121661 40.953056,50.8894 37.544669,49.65714 32.930002,47.717444 27.319263,45.226697 21.708523,42.735949 15.10157,39.694402 10.77557,40.323637 9.9397845,40.445206 9.1915199,40.707501 8.5307454,41.107052 A 39.6875,39.6875 0 0 0 7.9375,47.625 39.6875,39.6875 0 0 0 47.625,87.3125 39.6875,39.6875 0 0 0 87.3125,47.625 39.6875,39.6875 0 0 0 86.427283,39.336617 C 86.098335,39.227366 85.744085,39.167677 85.356547,39.1604 Z" /><path
       id="path8"
       style="opacity:1;fill:#112b00;stroke-width:0.0926042"
       d="M 8.3865682 48.243567 C 8.2323433 48.245149 8.1016708 48.260289 7.9803914 48.283358 A 39.6875 39.6875 0 0 0 8.9963501 56.421362 C 9.9437157 57.210509 11.280325 57.702625 13.125814 57.955636 C 15.424704 58.270806 18.502176 58.223032 21.616768 58.551465 C 24.731361 58.879898 27.882938 59.58434 30.385742 59.695581 C 32.888548 59.806823 34.742353 59.325197 36.911442 59.065645 C 39.080531 58.806093 41.564742 58.76883 42.565877 58.564901 C 43.567012 58.360971 43.084912 57.990394 42.398962 57.730843 C 41.713013 57.471293 40.823239 57.322732 39.451339 57.063184 C 38.079439 56.803635 36.225146 56.432867 34.426839 56.025004 C 32.628531 55.617141 30.886195 55.172481 29.013733 54.467993 C 27.141271 53.763505 25.138876 52.799572 23.155176 51.816992 C 21.171476 50.834412 19.206358 49.833213 16.907495 49.258492 C 14.608631 48.683772 11.976349 48.535539 10.289294 48.387227 C 9.4457673 48.313071 8.8384551 48.238932 8.3865682 48.243567 z " /><path
       id="path9"
       style="opacity:1;fill:#112b00;stroke-width:0.0926042"
       d="M 86.408679 45.124377 C 85.371829 45.176881 84.019189 45.481113 82.536047 45.828727 C 80.16302 46.384906 77.456496 47.052151 74.694149 47.867879 C 71.931801 48.683607 69.113769 49.647857 67.074459 50.611898 C 65.03515 51.575939 63.774425 52.539738 62.4396 53.374003 C 61.104774 54.208267 59.695664 54.912727 58.527694 55.450362 C 57.359724 55.987999 56.433191 56.358753 55.821399 57.081787 C 55.209607 57.804822 54.912773 58.879859 55.765588 59.250647 C 56.618402 59.621436 58.62079 59.287993 60.437655 59.028438 C 62.254519 58.768887 63.885592 58.583722 65.405827 57.749447 C 66.92606 56.915172 68.335198 55.431912 69.632959 54.579097 C 70.93072 53.726283 72.11714 53.503787 73.340743 53.07738 C 74.564346 52.650974 75.824847 52.020602 77.474858 51.872286 C 79.124868 51.723971 81.164253 52.057749 82.721566 51.742578 C 84.278877 51.427408 85.353948 50.463593 86.243831 49.870341 C 86.59878 49.63371 86.914425 49.455658 87.204496 49.273478 A 39.6875 39.6875 0 0 0 87.3125 47.625 A 39.6875 39.6875 0 0 0 87.179175 45.143498 C 86.947525 45.116308 86.690874 45.110088 86.408679 45.124377 z " /><path
       style="opacity:1;fill:#112b00;stroke-width:0.0926042"
       d="m 22.626324,62.582889 c -0.340837,-2.438297 -0.550579,-8.048873 -0.865204,-11.483532 -0.314625,-3.434658 -0.7341,-4.693083 -1.442005,-6.42352 -0.707906,-1.730436 -1.704159,-3.932679 -1.782815,-5.899085 -0.07866,-1.966406 0.76031,-3.696774 1.494426,-5.243663 0.734117,-1.546888 1.363342,-2.910209 2.254773,-2.857757 0.891431,0.05245 2.045009,1.520641 3.119966,3.198626 1.074957,1.677985 2.07121,3.565621 1.861459,5.820434 -0.20975,2.254813 -1.625505,4.876582 -2.385834,8.914242 -0.76033,4.037659 -0.865199,9.490834 -1.153605,12.584645 -0.288406,3.093811 -0.760324,3.827906 -1.101161,1.38961 z"
       id="path10"
       inkscape:path-effect="#path-effect10"
       inkscape:original-d="M 22.495233,65.755297 C 22.285487,60.144592 22.075746,54.534016 21.865995,48.9232 c -0.4195,-1.258501 -0.838975,-2.516926 -1.258474,-3.775426 -0.996312,-2.202373 -1.992565,-4.404616 -2.988877,-6.606991 0.839,-1.730437 1.677966,-3.460805 2.516949,-5.191208 0.62925,-1.363374 1.258475,-2.726695 1.887712,-4.09004 1.153625,1.46825 2.307203,2.936438 3.460805,4.404659 0.996312,1.887749 1.992565,3.775385 2.988877,5.663135 -1.415812,2.621876 -2.831568,5.243645 -4.247352,7.865468 -0.104875,5.453496 -0.209744,10.906671 -0.314619,16.360168 -0.471937,0.734125 -0.943855,1.46822 -1.415783,2.202332 z"
       transform="translate(0.94385593,0.15730932)"
       sodipodi:nodetypes="ccccccccccc" /><path
       style="opacity:1;fill:#112b00;stroke-width:0.0926042"
       d="m 33.87394,76.950477 c -0.943856,-1.022512 -2.464512,-2.018803 -4.194934,-3.172419 -1.730423,-1.153615 -3.670532,-2.4645 -5.217419,-2.831549 -1.546886,-0.367049 -2.700465,0.20974 -3.041297,0.996296 -0.340832,0.786557 0.131087,1.782829 1.153613,2.805351 1.022527,1.022522 2.595588,2.07123 4.194915,3.119968 1.599327,1.048739 3.224825,2.097446 4.693058,2.464498 1.468234,0.367052 2.77912,0.05244 3.251044,-0.629243 0.471925,-0.681683 0.104877,-1.730391 -0.83898,-2.752902 z"
       id="path11"
       inkscape:path-effect="#path-effect11"
       inkscape:original-d="m 34.450742,76.924259 c -1.520658,-0.996294 -3.041314,-1.992585 -4.561972,-2.988879 -1.940187,-1.310936 -3.880296,-2.621822 -5.820444,-3.932732 -1.153625,0.576813 -2.307203,1.153602 -3.460805,1.730401 0.471937,0.996313 0.943856,1.992585 1.415784,2.988879 1.573125,1.04875 3.146186,2.097458 4.71928,3.146187 1.625561,1.048747 3.251058,2.097455 4.876589,3.146184 1.310936,-0.314624 2.621822,-0.629237 3.932732,-0.943856 -0.367062,-1.048747 -0.73411,-2.097455 -1.101164,-3.146184 z" /><path
       style="opacity:1;fill:#112b00;stroke-width:0.0926042"
       d="m 71.680614,71.497086 c -0.943856,0.60302 -2.412076,2.07124 -4.430905,2.831569 -2.018829,0.760329 -4.588164,0.812764 -6.42345,1.284701 -1.835285,0.471937 -2.936428,1.363339 -3.434573,2.17611 -0.498145,0.812772 -0.393275,1.546867 0.943879,1.913922 1.337154,0.367055 3.906489,0.367055 6.449682,-0.445726 2.543193,-0.812781 5.06009,-2.438277 6.502096,-3.880291 1.442007,-1.442015 1.809055,-2.700466 1.782833,-3.460796 -0.02622,-0.760331 -0.445706,-1.022508 -1.389562,-0.419489 z"
       id="path12"
       inkscape:path-effect="#path-effect12"
       inkscape:original-d="m 72.204979,70.631885 c -1.468221,1.468221 -2.936441,2.936441 -4.404662,4.404662 -2.569437,0.05244 -5.138772,0.104873 -7.708156,0.157308 -1.101188,0.891437 -2.202331,1.782839 -3.303495,2.67426 0.104873,0.734123 0.209746,1.468218 0.314618,2.202328 2.569435,0 5.13877,0 7.708157,0 2.517,-1.62556 5.033896,-3.251057 7.550846,-4.876588 0.367064,-1.258499 0.73411,-2.51695 1.101166,-3.775424 -0.419499,-0.262187 -0.838983,-0.524365 -1.258474,-0.786546 z" /><path
       id="path13"
       style="opacity:1;fill:#806600;stroke-width:0.0926042"
       d="M 47.625 7.9375 A 39.6875 39.6875 0 0 0 19.601904 19.664433 C 19.823464 19.728461 20.052534 19.78497 20.292818 19.821012 C 21.341558 19.97832 22.547727 19.820898 23.491589 19.4014 C 24.435451 18.981902 25.11683 18.300107 26.113135 17.592208 C 27.109439 16.884309 28.420676 16.15053 29.548067 15.573726 C 30.675458 14.996922 31.619199 14.577179 32.799032 14.23634 C 33.978864 13.895501 35.394627 13.633569 36.364705 13.292729 C 37.334783 12.951888 37.859176 12.532314 38.750606 12.086601 C 39.642037 11.640887 40.900454 11.169146 42.211377 10.933183 C 43.5223 10.697219 44.885361 10.696806 46.222502 10.854118 C 47.559642 11.01143 48.870646 11.32604 50.207788 11.745536 C 51.54493 12.165033 52.908291 12.689374 54.376526 13.030212 C 55.84476 13.37105 57.417688 13.528596 58.807263 13.869438 C 60.196839 14.210279 61.403077 14.734845 62.714001 15.993339 C 64.024926 17.251833 65.440917 19.243981 67.118901 20.371366 C 68.796884 21.498751 70.736586 21.760897 72.388346 22.0493 C 74.040107 22.337704 75.403855 22.652339 76.531246 22.547461 C 77.080073 22.496405 77.570764 22.343785 77.826257 21.894271 A 39.6875 39.6875 0 0 0 47.625 7.9375 z " /><path
       style="opacity:1;fill:#806600;stroke-width:0.0926042"
       d="m 75.849311,31.016153 c -0.917638,0.183528 -2.280984,1.179821 -3.618128,1.677967 -1.337143,0.498147 -2.648027,0.498147 -4.352232,0.681678 -1.704205,0.183531 -3.80162,0.550578 -4.850349,0.996293 -1.048729,0.445715 -1.048729,0.970069 -0.393261,1.284689 0.655468,0.31462 1.966354,0.41949 3.43459,0.314614 1.468237,-0.104876 3.093734,-0.419489 4.955248,-0.707891 1.861514,-0.288403 3.95893,-0.550579 5.112534,-1.074952 1.153604,-0.524373 1.363345,-1.310903 1.23225,-2.018801 -0.131095,-0.707899 -0.603014,-1.337125 -1.520652,-1.153597 z"
       id="path14"
       inkscape:path-effect="#path-effect14"
       inkscape:original-d="m 76.295021,30.203388 c -1.363347,0.996294 -2.726695,1.992585 -4.090042,2.988879 -1.310939,0 -2.621823,0 -3.932733,0 -2.0975,0.367062 -4.194915,0.73411 -6.292373,1.101164 0,0.524375 0,1.048729 0,1.573094 1.310936,0.104875 2.621822,0.209745 3.932732,0.314618 1.625563,-0.314624 3.25106,-0.629237 4.876588,-0.943856 2.0975,-0.262186 4.194916,-0.524364 6.292374,-0.786545 0.209751,-0.786564 0.419491,-1.573094 0.629237,-2.359642 -0.471937,-0.629248 -0.943856,-1.258474 -1.415783,-1.887712 z" /><path
       style="opacity:1;fill:#806600;stroke-width:0.0926042"
       d="m 32.667902,34.686705 c -0.786547,-0.235964 -2.412076,-0.393273 -3.565685,-0.62924 -1.153608,-0.235968 -1.835267,-0.550579 -2.071229,-0.393263 -0.235963,0.157316 -0.02622,0.78654 0.655464,1.206034 0.681686,0.419493 1.835264,0.629235 2.857783,0.707889 1.022519,0.07865 1.913922,0.02622 2.38585,-0.157313 0.471928,-0.18353 0.524364,-0.498143 -0.262183,-0.734107 z"
       id="path15"
       inkscape:path-effect="#path-effect15"
       inkscape:original-d="m 33.506886,34.60805 c -1.625531,-0.157308 -3.25106,-0.314619 -4.876588,-0.471927 -0.681689,-0.314626 -1.363348,-0.629237 -2.045023,-0.943856 0.209751,0.629251 0.419491,1.258475 0.629237,1.887712 1.153626,0.209749 2.307204,0.419492 3.460806,0.629238 0.891436,-0.05244 1.782839,-0.104873 2.674257,-0.157311 0.05244,-0.314624 0.104873,-0.629237 0.157311,-0.943856 z" /><path
       sodipodi:type="star"
       style="opacity:1;fill:#eac840;fill-opacity:1;stroke-width:0.0926042"
       id="path16"
       inkscape:flatsided="false"
       sodipodi:sides="10"
       sodipodi:cx="45.494904"
       sodipodi:cy="33.592815"
       sodipodi:r1="13.173658"
       sodipodi:r2="1.3173658"
       sodipodi:arg1="1.0471976"
       sodipodi:arg2="1.3613568"
       inkscape:rounded="0.1"
       inkscape:randomized="0"
       d="m 52.081732,45.001539 c -1.03297,0.596385 -5.146226,-10.368137 -6.312933,-10.120145 -1.166707,0.247991 -0.464681,11.937592 -1.650918,11.812913 -1.186238,-0.124679 1.930853,-11.412874 0.841202,-11.898018 -1.089652,-0.485144 -7.392676,9.384582 -8.279078,8.586462 -0.886402,-0.79812 8.270412,-8.098282 7.674026,-9.131253 -0.596385,-1.03297 -11.496919,3.246981 -11.74491,2.080274 -0.247991,-1.166707 11.450955,-1.690421 11.575633,-2.876659 0.124679,-1.186237 -11.20973,-4.130857 -10.724586,-5.220508 0.485144,-1.089651 10.257622,5.363123 11.055742,4.476721 0.79812,-0.886402 -6.640806,-9.930848 -5.607835,-10.527234 1.032971,-0.596386 5.146226,10.368136 6.312933,10.120145 1.166707,-0.247991 0.464681,-11.937592 1.650918,-11.812913 1.186238,0.124678 -1.930853,11.412874 -0.841202,11.898018 1.089652,0.485144 7.392676,-9.384582 8.279078,-8.586462 0.886402,0.79812 -8.270412,8.098282 -7.674026,9.131252 0.596386,1.032971 11.496919,-3.24698 11.74491,-2.080274 0.247991,1.166707 -11.450955,1.690422 -11.575633,2.87666 -0.124679,1.186237 11.20973,4.130856 10.724586,5.220508 -0.485144,1.089651 -10.257622,-5.363123 -11.055742,-4.476721 -0.79812,0.886402 6.640806,9.930848 5.607835,10.527234 z"
       transform="translate(1.6550598,1.4871635)" /><path
       style="opacity:1;fill:#e9c840;stroke-width:0.0926042;fill-opacity:1"
       d="m 42.289989,74.748145 c -2.123676,-0.812765 -4.902806,-2.385858 -6.633215,-3.487029 -1.730409,-1.101172 -2.412072,-1.730398 -1.337096,-2.438298 1.074975,-0.707899 3.906487,-1.49443 6.239928,-2.045016 2.33344,-0.550585 4.168677,-0.865197 5.269846,-1.1536 1.10117,-0.288403 1.468218,-0.55058 3.093776,-0.707889 1.625557,-0.15731 4.509505,-0.209746 7.236225,-0.31462 2.726721,-0.104875 5.296055,-0.26218 7.419748,-0.07865 2.123693,0.183533 3.801624,0.707886 2.779077,2.018818 -1.022546,1.310931 -4.745461,3.408347 -8.363611,5.060107 -3.618149,1.65176 -7.131321,2.857775 -9.622066,3.434575 -2.490745,0.5768 -3.958937,0.524364 -6.082612,-0.288401 z"
       id="path2"
       inkscape:path-effect="#path-effect3"
       inkscape:original-d="m 42.945444,75.508473 c -2.779131,-1.573093 -5.558261,-3.146186 -8.337394,-4.71928 -0.681686,-0.629248 -1.363348,-1.258475 -2.04502,-1.887712 2.831623,-0.786561 5.663136,-1.573091 8.494702,-2.359639 1.835314,-0.314624 3.670551,-0.629237 5.505828,-0.943856 0.367062,-0.262186 0.73411,-0.524364 1.101164,-0.786545 2.884061,-0.05244 5.768009,-0.104873 8.652012,-0.157311 2.569438,-0.15731 5.138772,-0.314618 7.708157,-0.471926 1.678001,0.524375 3.355932,1.048728 5.033899,1.573093 -3.723061,2.097497 -7.445976,4.194913 -11.168962,6.292371 -3.513312,1.206063 -7.026484,2.412077 -10.539725,3.618116 -1.468249,-0.05244 -2.936441,-0.104873 -4.404661,-0.157311 z" /></g></svg>
